G04 #@! TF.GenerationSoftware,KiCad,Pcbnew,7.0.10*
G04 #@! TF.CreationDate,2024-04-08T00:43:02-04:00*
G04 #@! TF.ProjectId,JokerIteration1,4a6f6b65-7249-4746-9572-6174696f6e31,rev?*
G04 #@! TF.SameCoordinates,Original*
G04 #@! TF.FileFunction,Copper,L2,Bot*
G04 #@! TF.FilePolarity,Positive*
%FSLAX46Y46*%
G04 Gerber Fmt 4.6, Leading zero omitted, Abs format (unit mm)*
G04 Created by KiCad (PCBNEW 7.0.10) date 2024-04-08 00:43:02*
%MOMM*%
%LPD*%
G01*
G04 APERTURE LIST*
G04 Aperture macros list*
%AMRoundRect*
0 Rectangle with rounded corners*
0 $1 Rounding radius*
0 $2 $3 $4 $5 $6 $7 $8 $9 X,Y pos of 4 corners*
0 Add a 4 corners polygon primitive as box body*
4,1,4,$2,$3,$4,$5,$6,$7,$8,$9,$2,$3,0*
0 Add four circle primitives for the rounded corners*
1,1,$1+$1,$2,$3*
1,1,$1+$1,$4,$5*
1,1,$1+$1,$6,$7*
1,1,$1+$1,$8,$9*
0 Add four rect primitives between the rounded corners*
20,1,$1+$1,$2,$3,$4,$5,0*
20,1,$1+$1,$4,$5,$6,$7,0*
20,1,$1+$1,$6,$7,$8,$9,0*
20,1,$1+$1,$8,$9,$2,$3,0*%
G04 Aperture macros list end*
G04 #@! TA.AperFunction,SMDPad,CuDef*
%ADD10R,7.467600X6.477000*%
G04 #@! TD*
G04 #@! TA.AperFunction,ComponentPad*
%ADD11RoundRect,0.250000X-0.600000X-0.750000X0.600000X-0.750000X0.600000X0.750000X-0.600000X0.750000X0*%
G04 #@! TD*
G04 #@! TA.AperFunction,ComponentPad*
%ADD12O,1.700000X2.000000*%
G04 #@! TD*
G04 #@! TA.AperFunction,ComponentPad*
%ADD13R,1.000000X1.000000*%
G04 #@! TD*
G04 #@! TA.AperFunction,ComponentPad*
%ADD14O,1.000000X1.000000*%
G04 #@! TD*
G04 #@! TA.AperFunction,ComponentPad*
%ADD15C,3.800000*%
G04 #@! TD*
G04 #@! TA.AperFunction,SMDPad,CuDef*
%ADD16RoundRect,0.250000X0.262500X0.450000X-0.262500X0.450000X-0.262500X-0.450000X0.262500X-0.450000X0*%
G04 #@! TD*
G04 #@! TA.AperFunction,ViaPad*
%ADD17C,0.800000*%
G04 #@! TD*
G04 #@! TA.AperFunction,Conductor*
%ADD18C,0.250000*%
G04 #@! TD*
G04 APERTURE END LIST*
D10*
X78422500Y-106300000D03*
X157797500Y-106300000D03*
D11*
X127040000Y-120650000D03*
D12*
X129540000Y-120650000D03*
D13*
X140970000Y-120650000D03*
D14*
X140970000Y-121920000D03*
X139700000Y-120650000D03*
X139700000Y-121920000D03*
X138430000Y-120650000D03*
X138430000Y-121920000D03*
D13*
X74930000Y-95250000D03*
D14*
X76200000Y-95250000D03*
X74930000Y-96520000D03*
X76200000Y-96520000D03*
X74930000Y-97790000D03*
X76200000Y-97790000D03*
X74930000Y-99060000D03*
X76200000Y-99060000D03*
X74930000Y-100330000D03*
X76200000Y-100330000D03*
D15*
X80010000Y-120650000D03*
X156210000Y-120650000D03*
X80010000Y-90170000D03*
X156210000Y-91440000D03*
D16*
X120650000Y-106680000D03*
X118825000Y-106680000D03*
D17*
X134620000Y-93980000D03*
X139700000Y-93980000D03*
X119380000Y-97790000D03*
X128270000Y-93980000D03*
X97790000Y-104140000D03*
X105410000Y-87630000D03*
X106680000Y-116840000D03*
X107950000Y-111760000D03*
X157480000Y-116840000D03*
X158750000Y-101600000D03*
X124460000Y-102870000D03*
X114427653Y-104012347D03*
X130810000Y-100330000D03*
X78780000Y-106300000D03*
X110490000Y-111760000D03*
X120650000Y-111760000D03*
X125730000Y-87620000D03*
X134567347Y-108002653D03*
X102870000Y-116840000D03*
X109220000Y-116840000D03*
X101600000Y-91440000D03*
X88900000Y-96520000D03*
X140970000Y-115570000D03*
X107950000Y-88900000D03*
D18*
X125730000Y-93980000D02*
X121920000Y-97790000D01*
X139700000Y-93980000D02*
X134620000Y-93980000D01*
X121920000Y-97790000D02*
X119380000Y-97790000D01*
X128270000Y-93980000D02*
X125730000Y-93980000D01*
X106680000Y-113030000D02*
X107950000Y-111760000D01*
X106680000Y-116840000D02*
X106680000Y-113030000D01*
X157480000Y-111760000D02*
X157165000Y-112075000D01*
X157165000Y-112075000D02*
X157165000Y-116525000D01*
X157165000Y-116525000D02*
X157480000Y-116840000D01*
X158750000Y-101600000D02*
X160020000Y-101600000D01*
X114427653Y-104012347D02*
X112140000Y-106300000D01*
X130810000Y-100330000D02*
X128270000Y-102870000D01*
X128270000Y-102870000D02*
X124460000Y-102870000D01*
X112140000Y-106300000D02*
X105030000Y-106300000D01*
X78780000Y-106300000D02*
X105030000Y-106300000D01*
X105030000Y-106300000D02*
X110490000Y-111760000D01*
X110490000Y-111760000D02*
X120650000Y-111760000D01*
X134567347Y-96457347D02*
X125730000Y-87620000D01*
X134567347Y-108002653D02*
X134567347Y-96457347D01*
X118825000Y-106680000D02*
X119850000Y-105655000D01*
X104140000Y-118110000D02*
X102870000Y-116840000D01*
X119850000Y-105655000D02*
X121157600Y-105655000D01*
X121825000Y-112246701D02*
X115961701Y-118110000D01*
X121825000Y-106322400D02*
X121825000Y-112246701D01*
X115961701Y-118110000D02*
X104140000Y-118110000D01*
X121157600Y-105655000D02*
X121825000Y-106322400D01*
X121375000Y-112060305D02*
X121375000Y-107405000D01*
X121375000Y-107405000D02*
X120650000Y-106680000D01*
X116595305Y-116840000D02*
X121375000Y-112060305D01*
X109220000Y-116840000D02*
X116595305Y-116840000D01*
X100330000Y-92710000D02*
X101600000Y-91440000D01*
X88900000Y-92710000D02*
X100330000Y-92710000D01*
X88900000Y-96520000D02*
X88900000Y-92710000D01*
X140970000Y-115570000D02*
X134620000Y-115570000D01*
X134620000Y-115570000D02*
X107950000Y-88900000D01*
G04 #@! TA.AperFunction,Conductor*
G36*
X163772539Y-86380185D02*
G01*
X163818294Y-86432989D01*
X163829500Y-86484500D01*
X163829500Y-124335500D01*
X163809815Y-124402539D01*
X163757011Y-124448294D01*
X163705500Y-124459500D01*
X72514500Y-124459500D01*
X72447461Y-124439815D01*
X72401706Y-124387011D01*
X72390500Y-124335500D01*
X72390500Y-120650005D01*
X77596738Y-120650005D01*
X77615765Y-120952451D01*
X77615766Y-120952455D01*
X77615766Y-120952459D01*
X77615767Y-120952462D01*
X77672555Y-121250154D01*
X77683877Y-121285000D01*
X77766203Y-121538374D01*
X77766204Y-121538375D01*
X77766206Y-121538381D01*
X77895242Y-121812598D01*
X77895246Y-121812605D01*
X77895247Y-121812606D01*
X78057626Y-122068475D01*
X78057629Y-122068479D01*
X78057630Y-122068480D01*
X78250808Y-122301992D01*
X78443567Y-122483004D01*
X78471727Y-122509448D01*
X78471737Y-122509456D01*
X78716898Y-122687576D01*
X78716903Y-122687578D01*
X78716910Y-122687584D01*
X78982483Y-122833585D01*
X78982488Y-122833587D01*
X78982490Y-122833588D01*
X78982491Y-122833589D01*
X79264257Y-122945148D01*
X79264260Y-122945149D01*
X79348026Y-122966656D01*
X79557800Y-123020516D01*
X79705028Y-123039115D01*
X79858460Y-123058499D01*
X79858466Y-123058499D01*
X79858470Y-123058500D01*
X79858472Y-123058500D01*
X80161528Y-123058500D01*
X80161530Y-123058500D01*
X80161535Y-123058499D01*
X80161539Y-123058499D01*
X80241357Y-123048415D01*
X80462200Y-123020516D01*
X80755739Y-122945149D01*
X80755742Y-122945148D01*
X81037508Y-122833589D01*
X81037509Y-122833588D01*
X81037507Y-122833588D01*
X81037517Y-122833585D01*
X81303090Y-122687584D01*
X81418570Y-122603683D01*
X124585740Y-122603683D01*
X124594330Y-122762132D01*
X124595755Y-122788406D01*
X124595755Y-122788411D01*
X124645244Y-122966656D01*
X124645247Y-122966662D01*
X124731898Y-123130102D01*
X124794540Y-123203850D01*
X124851663Y-123271100D01*
X124998936Y-123383054D01*
X125166833Y-123460732D01*
X125166834Y-123460732D01*
X125166836Y-123460733D01*
X125221648Y-123472797D01*
X125347503Y-123500500D01*
X125347506Y-123500500D01*
X125486107Y-123500500D01*
X125486113Y-123500500D01*
X125623910Y-123485514D01*
X125799221Y-123426444D01*
X125957736Y-123331070D01*
X126092041Y-123203849D01*
X126195858Y-123050730D01*
X126264331Y-122878875D01*
X126294260Y-122696317D01*
X126284245Y-122511593D01*
X126283650Y-122509450D01*
X126234755Y-122333343D01*
X126232265Y-122327093D01*
X126234427Y-122326231D01*
X126222578Y-122268362D01*
X126247794Y-122203201D01*
X126304236Y-122162017D01*
X126358745Y-122155362D01*
X126389455Y-122158500D01*
X127690544Y-122158499D01*
X127794426Y-122147887D01*
X127962738Y-122092115D01*
X128113652Y-121999030D01*
X128239030Y-121873652D01*
X128330417Y-121725489D01*
X128382363Y-121678768D01*
X128451326Y-121667545D01*
X128515408Y-121695389D01*
X128525468Y-121704780D01*
X128562476Y-121743394D01*
X128627044Y-121810764D01*
X128639228Y-121823476D01*
X128825153Y-121960985D01*
X129031643Y-122065095D01*
X129252757Y-122132811D01*
X129482135Y-122162184D01*
X129713178Y-122152369D01*
X129939238Y-122103649D01*
X130153813Y-122017426D01*
X130312042Y-121920000D01*
X137416620Y-121920000D01*
X137436091Y-122117699D01*
X137493760Y-122307808D01*
X137587401Y-122482998D01*
X137587405Y-122483005D01*
X137713431Y-122636568D01*
X137866994Y-122762594D01*
X137867001Y-122762598D01*
X138042191Y-122856239D01*
X138042193Y-122856239D01*
X138042196Y-122856241D01*
X138232299Y-122913908D01*
X138232298Y-122913908D01*
X138250024Y-122915653D01*
X138430000Y-122933380D01*
X138627701Y-122913908D01*
X138817804Y-122856241D01*
X138860191Y-122833585D01*
X138992995Y-122762600D01*
X138992996Y-122762599D01*
X138993004Y-122762595D01*
X138993010Y-122762589D01*
X138996101Y-122760525D01*
X138997978Y-122759936D01*
X138998377Y-122759724D01*
X138998417Y-122759799D01*
X139062776Y-122739642D01*
X139130158Y-122758121D01*
X139133899Y-122760525D01*
X139136993Y-122762593D01*
X139136996Y-122762595D01*
X139136998Y-122762596D01*
X139137004Y-122762600D01*
X139312191Y-122856239D01*
X139312193Y-122856239D01*
X139312196Y-122856241D01*
X139502299Y-122913908D01*
X139502298Y-122913908D01*
X139520024Y-122915653D01*
X139700000Y-122933380D01*
X139897701Y-122913908D01*
X140087804Y-122856241D01*
X140102571Y-122848348D01*
X140262998Y-122762599D01*
X140263000Y-122762596D01*
X140263004Y-122762595D01*
X140263429Y-122762246D01*
X140263696Y-122762132D01*
X140268067Y-122759212D01*
X140268620Y-122760040D01*
X140327735Y-122734929D01*
X140396603Y-122746715D01*
X140410989Y-122754991D01*
X140411740Y-122755493D01*
X140585461Y-122848348D01*
X140720000Y-122889159D01*
X140720000Y-122127672D01*
X140757871Y-122172805D01*
X140857129Y-122230112D01*
X140941564Y-122245000D01*
X140998436Y-122245000D01*
X141082871Y-122230112D01*
X141182129Y-122172805D01*
X141184483Y-122170000D01*
X141220000Y-122170000D01*
X141220000Y-122889159D01*
X141354534Y-122848349D01*
X141528260Y-122755491D01*
X141680528Y-122630528D01*
X141805492Y-122478260D01*
X141805496Y-122478253D01*
X141898347Y-122304541D01*
X141939160Y-122170000D01*
X141220000Y-122170000D01*
X141184483Y-122170000D01*
X141255801Y-122085007D01*
X141295000Y-121977306D01*
X141295000Y-121862694D01*
X141255801Y-121754993D01*
X141184483Y-121670000D01*
X141939160Y-121670000D01*
X141939160Y-121669999D01*
X141898347Y-121535459D01*
X141896265Y-121530432D01*
X141888795Y-121460963D01*
X141911556Y-121408670D01*
X141920889Y-121396204D01*
X141946439Y-121327702D01*
X141971987Y-121259207D01*
X141971987Y-121259205D01*
X141971989Y-121259201D01*
X141976378Y-121218376D01*
X141978499Y-121198654D01*
X141978500Y-121198637D01*
X141978500Y-120650005D01*
X153796738Y-120650005D01*
X153815765Y-120952451D01*
X153815766Y-120952455D01*
X153815766Y-120952459D01*
X153815767Y-120952462D01*
X153872555Y-121250154D01*
X153883877Y-121285000D01*
X153966203Y-121538374D01*
X153966204Y-121538375D01*
X153966206Y-121538381D01*
X154095242Y-121812598D01*
X154095246Y-121812605D01*
X154095247Y-121812606D01*
X154257626Y-122068475D01*
X154257629Y-122068479D01*
X154257630Y-122068480D01*
X154450808Y-122301992D01*
X154643567Y-122483004D01*
X154671727Y-122509448D01*
X154671737Y-122509456D01*
X154916898Y-122687576D01*
X154916903Y-122687578D01*
X154916910Y-122687584D01*
X155182483Y-122833585D01*
X155182488Y-122833587D01*
X155182490Y-122833588D01*
X155182491Y-122833589D01*
X155464257Y-122945148D01*
X155464260Y-122945149D01*
X155548026Y-122966656D01*
X155757800Y-123020516D01*
X155905028Y-123039115D01*
X156058460Y-123058499D01*
X156058466Y-123058499D01*
X156058470Y-123058500D01*
X156058472Y-123058500D01*
X156361528Y-123058500D01*
X156361530Y-123058500D01*
X156361535Y-123058499D01*
X156361539Y-123058499D01*
X156441357Y-123048415D01*
X156662200Y-123020516D01*
X156955739Y-122945149D01*
X156955742Y-122945148D01*
X157237508Y-122833589D01*
X157237509Y-122833588D01*
X157237507Y-122833588D01*
X157237517Y-122833585D01*
X157503090Y-122687584D01*
X157748271Y-122509450D01*
X157969192Y-122301992D01*
X158162370Y-122068480D01*
X158324758Y-121812598D01*
X158453794Y-121538381D01*
X158547445Y-121250154D01*
X158604233Y-120952462D01*
X158623262Y-120650000D01*
X158604233Y-120347538D01*
X158547445Y-120049846D01*
X158453794Y-119761619D01*
X158324758Y-119487402D01*
X158206445Y-119300971D01*
X158162373Y-119231524D01*
X158142817Y-119207885D01*
X157969192Y-118998008D01*
X157748271Y-118790550D01*
X157748268Y-118790548D01*
X157748262Y-118790543D01*
X157503101Y-118612423D01*
X157503094Y-118612418D01*
X157503090Y-118612416D01*
X157237517Y-118466415D01*
X157237514Y-118466413D01*
X157237509Y-118466411D01*
X157237508Y-118466410D01*
X156955742Y-118354851D01*
X156955739Y-118354850D01*
X156662197Y-118279483D01*
X156361539Y-118241500D01*
X156361530Y-118241500D01*
X156058470Y-118241500D01*
X156058460Y-118241500D01*
X155757802Y-118279483D01*
X155464260Y-118354850D01*
X155464257Y-118354851D01*
X155182491Y-118466410D01*
X155182490Y-118466411D01*
X154916910Y-118612416D01*
X154916898Y-118612423D01*
X154671737Y-118790543D01*
X154671727Y-118790551D01*
X154450810Y-118998006D01*
X154257626Y-119231524D01*
X154095247Y-119487393D01*
X154095244Y-119487397D01*
X154095242Y-119487402D01*
X153971643Y-119750065D01*
X153966204Y-119761624D01*
X153966203Y-119761625D01*
X153910380Y-119933432D01*
X153872555Y-120049846D01*
X153815767Y-120347538D01*
X153815766Y-120347544D01*
X153815765Y-120347548D01*
X153796738Y-120649994D01*
X153796738Y-120650005D01*
X141978500Y-120650005D01*
X141978500Y-120101362D01*
X141978499Y-120101345D01*
X141975157Y-120070270D01*
X141971989Y-120040799D01*
X141920889Y-119903796D01*
X141833261Y-119786739D01*
X141716204Y-119699111D01*
X141716201Y-119699110D01*
X141579203Y-119648011D01*
X141518654Y-119641500D01*
X141518638Y-119641500D01*
X140421362Y-119641500D01*
X140421345Y-119641500D01*
X140360797Y-119648011D01*
X140360795Y-119648011D01*
X140233915Y-119695336D01*
X140223796Y-119699111D01*
X140223793Y-119699112D01*
X140223789Y-119699115D01*
X140218895Y-119702779D01*
X140153429Y-119727193D01*
X140094071Y-119714555D01*
X140093436Y-119716091D01*
X140087814Y-119713762D01*
X140039513Y-119699110D01*
X139897701Y-119656092D01*
X139897699Y-119656091D01*
X139897701Y-119656091D01*
X139700000Y-119636620D01*
X139502300Y-119656091D01*
X139312191Y-119713760D01*
X139136995Y-119807404D01*
X139133885Y-119809483D01*
X139132008Y-119810070D01*
X139131624Y-119810276D01*
X139131584Y-119810203D01*
X139067206Y-119830357D01*
X138999827Y-119811869D01*
X138996115Y-119809483D01*
X138993004Y-119807404D01*
X138817808Y-119713760D01*
X138722752Y-119684925D01*
X138627701Y-119656092D01*
X138627699Y-119656091D01*
X138627701Y-119656091D01*
X138430000Y-119636620D01*
X138232300Y-119656091D01*
X138042191Y-119713760D01*
X137867001Y-119807401D01*
X137866994Y-119807405D01*
X137713431Y-119933431D01*
X137587405Y-120086994D01*
X137587401Y-120087001D01*
X137493760Y-120262191D01*
X137436091Y-120452300D01*
X137416620Y-120650000D01*
X137436091Y-120847699D01*
X137493760Y-121037808D01*
X137587404Y-121213004D01*
X137589483Y-121216115D01*
X137590070Y-121217991D01*
X137590276Y-121218376D01*
X137590203Y-121218415D01*
X137610357Y-121282794D01*
X137591869Y-121350173D01*
X137589483Y-121353885D01*
X137587404Y-121356995D01*
X137493760Y-121532191D01*
X137436091Y-121722300D01*
X137416620Y-121920000D01*
X130312042Y-121920000D01*
X130350730Y-121896179D01*
X130524324Y-121743398D01*
X130669600Y-121563476D01*
X130782380Y-121361591D01*
X130859419Y-121143550D01*
X130892186Y-120952451D01*
X130898499Y-120915634D01*
X130898500Y-120915623D01*
X130898500Y-120442287D01*
X130898499Y-120442269D01*
X130883802Y-120269586D01*
X130881876Y-120262191D01*
X130825530Y-120045793D01*
X130825529Y-120045789D01*
X130730283Y-119835080D01*
X130730276Y-119835068D01*
X130600790Y-119643486D01*
X130600786Y-119643481D01*
X130600783Y-119643477D01*
X130440772Y-119476524D01*
X130254847Y-119339015D01*
X130254846Y-119339014D01*
X130254844Y-119339013D01*
X130048358Y-119234905D01*
X129920888Y-119195867D01*
X129827243Y-119167189D01*
X129827241Y-119167188D01*
X129827242Y-119167188D01*
X129597859Y-119137815D01*
X129366827Y-119147630D01*
X129366821Y-119147630D01*
X129140759Y-119196351D01*
X128926190Y-119282572D01*
X128729270Y-119403820D01*
X128555679Y-119556599D01*
X128555674Y-119556604D01*
X128531757Y-119586224D01*
X128474326Y-119626015D01*
X128404498Y-119628440D01*
X128344444Y-119592728D01*
X128329747Y-119573423D01*
X128239030Y-119426348D01*
X128113652Y-119300970D01*
X127962738Y-119207885D01*
X127927930Y-119196351D01*
X127794427Y-119152113D01*
X127690545Y-119141500D01*
X126389462Y-119141500D01*
X126389446Y-119141501D01*
X126285572Y-119152113D01*
X126117264Y-119207884D01*
X126117259Y-119207886D01*
X125966346Y-119300971D01*
X125840971Y-119426346D01*
X125747886Y-119577259D01*
X125747884Y-119577264D01*
X125692113Y-119745572D01*
X125681500Y-119849447D01*
X125681500Y-121450537D01*
X125681501Y-121450553D01*
X125692113Y-121554428D01*
X125723683Y-121649702D01*
X125726084Y-121719530D01*
X125690352Y-121779572D01*
X125627832Y-121810764D01*
X125579323Y-121809806D01*
X125532501Y-121799500D01*
X125532497Y-121799500D01*
X125393887Y-121799500D01*
X125393883Y-121799500D01*
X125256088Y-121814486D01*
X125080776Y-121873557D01*
X125080774Y-121873558D01*
X124922262Y-121968931D01*
X124922261Y-121968932D01*
X124787959Y-122096149D01*
X124684138Y-122249276D01*
X124615669Y-122421122D01*
X124615669Y-122421125D01*
X124585740Y-122603683D01*
X81418570Y-122603683D01*
X81548271Y-122509450D01*
X81769192Y-122301992D01*
X81962370Y-122068480D01*
X82124758Y-121812598D01*
X82253794Y-121538381D01*
X82347445Y-121250154D01*
X82404233Y-120952462D01*
X82423262Y-120650000D01*
X82404233Y-120347538D01*
X82347445Y-120049846D01*
X82253794Y-119761619D01*
X82124758Y-119487402D01*
X82006445Y-119300971D01*
X81962373Y-119231524D01*
X81942817Y-119207885D01*
X81769192Y-118998008D01*
X81548271Y-118790550D01*
X81548268Y-118790548D01*
X81548262Y-118790543D01*
X81303101Y-118612423D01*
X81303094Y-118612418D01*
X81303090Y-118612416D01*
X81037517Y-118466415D01*
X81037514Y-118466413D01*
X81037509Y-118466411D01*
X81037508Y-118466410D01*
X80755742Y-118354851D01*
X80755739Y-118354850D01*
X80462197Y-118279483D01*
X80161539Y-118241500D01*
X80161530Y-118241500D01*
X79858470Y-118241500D01*
X79858460Y-118241500D01*
X79557802Y-118279483D01*
X79264260Y-118354850D01*
X79264257Y-118354851D01*
X78982491Y-118466410D01*
X78982490Y-118466411D01*
X78716910Y-118612416D01*
X78716898Y-118612423D01*
X78471737Y-118790543D01*
X78471727Y-118790551D01*
X78250810Y-118998006D01*
X78057626Y-119231524D01*
X77895247Y-119487393D01*
X77895244Y-119487397D01*
X77895242Y-119487402D01*
X77771643Y-119750065D01*
X77766204Y-119761624D01*
X77766203Y-119761625D01*
X77710380Y-119933432D01*
X77672555Y-120049846D01*
X77615767Y-120347538D01*
X77615766Y-120347544D01*
X77615765Y-120347548D01*
X77596738Y-120649994D01*
X77596738Y-120650005D01*
X72390500Y-120650005D01*
X72390500Y-109587154D01*
X74180200Y-109587154D01*
X74186711Y-109647702D01*
X74186711Y-109647704D01*
X74237811Y-109784704D01*
X74325439Y-109901761D01*
X74442496Y-109989389D01*
X74579499Y-110040489D01*
X74606750Y-110043418D01*
X74640045Y-110046999D01*
X74640062Y-110047000D01*
X82204938Y-110047000D01*
X82204954Y-110046999D01*
X82231992Y-110044091D01*
X82265501Y-110040489D01*
X82402504Y-109989389D01*
X82519561Y-109901761D01*
X82607189Y-109784704D01*
X82658289Y-109647701D01*
X82661891Y-109614192D01*
X82664799Y-109587154D01*
X82664800Y-109587137D01*
X82664800Y-107057500D01*
X82684485Y-106990461D01*
X82737289Y-106944706D01*
X82788800Y-106933500D01*
X104716234Y-106933500D01*
X104783273Y-106953185D01*
X104803915Y-106969819D01*
X109543379Y-111709284D01*
X109576864Y-111770607D01*
X109579018Y-111783999D01*
X109596458Y-111949928D01*
X109596459Y-111949931D01*
X109655470Y-112131549D01*
X109655473Y-112131556D01*
X109750960Y-112296944D01*
X109878747Y-112438866D01*
X110033248Y-112551118D01*
X110207712Y-112628794D01*
X110394513Y-112668500D01*
X110585487Y-112668500D01*
X110772288Y-112628794D01*
X110946752Y-112551118D01*
X111101253Y-112438866D01*
X111105160Y-112434527D01*
X111164646Y-112397879D01*
X111197309Y-112393500D01*
X119846537Y-112393500D01*
X119913576Y-112413185D01*
X119959331Y-112465989D01*
X119969275Y-112535147D01*
X119940250Y-112598703D01*
X119934218Y-112605181D01*
X116369219Y-116170181D01*
X116307896Y-116203666D01*
X116281538Y-116206500D01*
X109927309Y-116206500D01*
X109860270Y-116186815D01*
X109835160Y-116165473D01*
X109831254Y-116161135D01*
X109827244Y-116158221D01*
X109676752Y-116048882D01*
X109502288Y-115971206D01*
X109502286Y-115971205D01*
X109315487Y-115931500D01*
X109124513Y-115931500D01*
X108937714Y-115971205D01*
X108924660Y-115977017D01*
X108769432Y-116046129D01*
X108763246Y-116048883D01*
X108608745Y-116161135D01*
X108480959Y-116303057D01*
X108385473Y-116468443D01*
X108385470Y-116468450D01*
X108328270Y-116644495D01*
X108326458Y-116650072D01*
X108306496Y-116840000D01*
X108326458Y-117029928D01*
X108326459Y-117029931D01*
X108385470Y-117211549D01*
X108385472Y-117211553D01*
X108385473Y-117211556D01*
X108430471Y-117289494D01*
X108431052Y-117290501D01*
X108447524Y-117358401D01*
X108424671Y-117424428D01*
X108369749Y-117467618D01*
X108323664Y-117476500D01*
X107576336Y-117476500D01*
X107509297Y-117456815D01*
X107463542Y-117404011D01*
X107453598Y-117334853D01*
X107468948Y-117290501D01*
X107469195Y-117290072D01*
X107514527Y-117211556D01*
X107573542Y-117029928D01*
X107593504Y-116840000D01*
X107573542Y-116650072D01*
X107514527Y-116468444D01*
X107419040Y-116303056D01*
X107419036Y-116303050D01*
X107345350Y-116221213D01*
X107315120Y-116158221D01*
X107313500Y-116138241D01*
X107313500Y-113343766D01*
X107333185Y-113276727D01*
X107349819Y-113256085D01*
X107901085Y-112704819D01*
X107962408Y-112671334D01*
X107988766Y-112668500D01*
X108045487Y-112668500D01*
X108232288Y-112628794D01*
X108406752Y-112551118D01*
X108561253Y-112438866D01*
X108689040Y-112296944D01*
X108784527Y-112131556D01*
X108843542Y-111949928D01*
X108863504Y-111760000D01*
X108843542Y-111570072D01*
X108784527Y-111388444D01*
X108689040Y-111223056D01*
X108561253Y-111081134D01*
X108406752Y-110968882D01*
X108232288Y-110891206D01*
X108232286Y-110891205D01*
X108045487Y-110851500D01*
X107854513Y-110851500D01*
X107667714Y-110891205D01*
X107493246Y-110968883D01*
X107338745Y-111081135D01*
X107210959Y-111223057D01*
X107115473Y-111388443D01*
X107115470Y-111388450D01*
X107056459Y-111570068D01*
X107056458Y-111570072D01*
X107041826Y-111709284D01*
X107039019Y-111735995D01*
X107012434Y-111800609D01*
X107003379Y-111810714D01*
X106291179Y-112522914D01*
X106278820Y-112532818D01*
X106278993Y-112533027D01*
X106272982Y-112538000D01*
X106226338Y-112587669D01*
X106223633Y-112590460D01*
X106203873Y-112610221D01*
X106203858Y-112610238D01*
X106201317Y-112613513D01*
X106193753Y-112622367D01*
X106163420Y-112654671D01*
X106163412Y-112654681D01*
X106153579Y-112672567D01*
X106142903Y-112688820D01*
X106130386Y-112704957D01*
X106130385Y-112704960D01*
X106112785Y-112745629D01*
X106107648Y-112756115D01*
X106086303Y-112794941D01*
X106086303Y-112794942D01*
X106081225Y-112814720D01*
X106074925Y-112833122D01*
X106066818Y-112851857D01*
X106059888Y-112895609D01*
X106057520Y-112907045D01*
X106046500Y-112949965D01*
X106046500Y-112970384D01*
X106044972Y-112989783D01*
X106041780Y-113009943D01*
X106044874Y-113042681D01*
X106045950Y-113054057D01*
X106046500Y-113065726D01*
X106046500Y-116138241D01*
X106026815Y-116205280D01*
X106014650Y-116221213D01*
X105940963Y-116303050D01*
X105940958Y-116303057D01*
X105845473Y-116468443D01*
X105845470Y-116468450D01*
X105788270Y-116644495D01*
X105786458Y-116650072D01*
X105766496Y-116840000D01*
X105786458Y-117029928D01*
X105786459Y-117029931D01*
X105845470Y-117211549D01*
X105845472Y-117211553D01*
X105845473Y-117211556D01*
X105890471Y-117289494D01*
X105891052Y-117290501D01*
X105907524Y-117358401D01*
X105884671Y-117424428D01*
X105829749Y-117467618D01*
X105783664Y-117476500D01*
X104453767Y-117476500D01*
X104386728Y-117456815D01*
X104366086Y-117440181D01*
X103816620Y-116890715D01*
X103783135Y-116829392D01*
X103780982Y-116816012D01*
X103763542Y-116650072D01*
X103704527Y-116468444D01*
X103609040Y-116303056D01*
X103481253Y-116161134D01*
X103326752Y-116048882D01*
X103152288Y-115971206D01*
X103152286Y-115971205D01*
X102965487Y-115931500D01*
X102774513Y-115931500D01*
X102587714Y-115971205D01*
X102574660Y-115977017D01*
X102419432Y-116046129D01*
X102413246Y-116048883D01*
X102258745Y-116161135D01*
X102130959Y-116303057D01*
X102035473Y-116468443D01*
X102035470Y-116468450D01*
X101978270Y-116644495D01*
X101976458Y-116650072D01*
X101956496Y-116840000D01*
X101976458Y-117029928D01*
X101976459Y-117029931D01*
X102035470Y-117211549D01*
X102035472Y-117211553D01*
X102035473Y-117211556D01*
X102130960Y-117376944D01*
X102258747Y-117518866D01*
X102413248Y-117631118D01*
X102587712Y-117708794D01*
X102774513Y-117748500D01*
X102831234Y-117748500D01*
X102898273Y-117768185D01*
X102918915Y-117784819D01*
X103632910Y-118498814D01*
X103642816Y-118511178D01*
X103643026Y-118511005D01*
X103647997Y-118517013D01*
X103648000Y-118517018D01*
X103697701Y-118563690D01*
X103700465Y-118566369D01*
X103720230Y-118586134D01*
X103723504Y-118588673D01*
X103732370Y-118596247D01*
X103764678Y-118626586D01*
X103782567Y-118636420D01*
X103798833Y-118647104D01*
X103814959Y-118659613D01*
X103855616Y-118677207D01*
X103866107Y-118682346D01*
X103904940Y-118703695D01*
X103924718Y-118708773D01*
X103943119Y-118715073D01*
X103961855Y-118723181D01*
X104005630Y-118730113D01*
X104017045Y-118732478D01*
X104059970Y-118743500D01*
X104080384Y-118743500D01*
X104099783Y-118745027D01*
X104119943Y-118748220D01*
X104164057Y-118744050D01*
X104175726Y-118743500D01*
X115878067Y-118743500D01*
X115893814Y-118745238D01*
X115893840Y-118744968D01*
X115901606Y-118745701D01*
X115901610Y-118745702D01*
X115969718Y-118743560D01*
X115973614Y-118743500D01*
X116001559Y-118743500D01*
X116001561Y-118743499D01*
X116002963Y-118743322D01*
X116005650Y-118742983D01*
X116017309Y-118742064D01*
X116061590Y-118740673D01*
X116081182Y-118734980D01*
X116100239Y-118731032D01*
X116120498Y-118728474D01*
X116161707Y-118712157D01*
X116172744Y-118708379D01*
X116215294Y-118696018D01*
X116232866Y-118685625D01*
X116250333Y-118677068D01*
X116269318Y-118669552D01*
X116305162Y-118643508D01*
X116314931Y-118637092D01*
X116316067Y-118636420D01*
X116353063Y-118614542D01*
X116367503Y-118600100D01*
X116382293Y-118587470D01*
X116398808Y-118575472D01*
X116427060Y-118541319D01*
X116434904Y-118532699D01*
X122213817Y-112753787D01*
X122226178Y-112743886D01*
X122226004Y-112743676D01*
X122232013Y-112738703D01*
X122232018Y-112738701D01*
X122278690Y-112688998D01*
X122281339Y-112686265D01*
X122301135Y-112666471D01*
X122303672Y-112663199D01*
X122311251Y-112654325D01*
X122341586Y-112622022D01*
X122351419Y-112604133D01*
X122362102Y-112587870D01*
X122374614Y-112571742D01*
X122392207Y-112531082D01*
X122397350Y-112520586D01*
X122418693Y-112481765D01*
X122418693Y-112481764D01*
X122418695Y-112481761D01*
X122423774Y-112461974D01*
X122430070Y-112443586D01*
X122438181Y-112424846D01*
X122445113Y-112381073D01*
X122447478Y-112369654D01*
X122458500Y-112326731D01*
X122458500Y-112306316D01*
X122460027Y-112286915D01*
X122463220Y-112266758D01*
X122459050Y-112222643D01*
X122458500Y-112210974D01*
X122458500Y-106406031D01*
X122460238Y-106390281D01*
X122459968Y-106390256D01*
X122460701Y-106382494D01*
X122460702Y-106382491D01*
X122458561Y-106314381D01*
X122458500Y-106310485D01*
X122458500Y-106282546D01*
X122457982Y-106278449D01*
X122457064Y-106266789D01*
X122455673Y-106222510D01*
X122455672Y-106222508D01*
X122449979Y-106202914D01*
X122446032Y-106183857D01*
X122443474Y-106163603D01*
X122427162Y-106122404D01*
X122423377Y-106111350D01*
X122411018Y-106068807D01*
X122400622Y-106051229D01*
X122392066Y-106033762D01*
X122384552Y-106014783D01*
X122358510Y-105978939D01*
X122352099Y-105969181D01*
X122329542Y-105931038D01*
X122315108Y-105916604D01*
X122302471Y-105901809D01*
X122290472Y-105885293D01*
X122290469Y-105885291D01*
X122290469Y-105885290D01*
X122256325Y-105857043D01*
X122247685Y-105849181D01*
X121664691Y-105266187D01*
X121654788Y-105253825D01*
X121654578Y-105254000D01*
X121649599Y-105247981D01*
X121599931Y-105201340D01*
X121597134Y-105198629D01*
X121577366Y-105178861D01*
X121574104Y-105176331D01*
X121565219Y-105168743D01*
X121532921Y-105138414D01*
X121532919Y-105138412D01*
X121515031Y-105128578D01*
X121498770Y-105117897D01*
X121482639Y-105105384D01*
X121441975Y-105087788D01*
X121431485Y-105082649D01*
X121392660Y-105061305D01*
X121392656Y-105061304D01*
X121372887Y-105056228D01*
X121354481Y-105049926D01*
X121335744Y-105041818D01*
X121335745Y-105041818D01*
X121291983Y-105034887D01*
X121280547Y-105032519D01*
X121265793Y-105028731D01*
X121237632Y-105021500D01*
X121237630Y-105021500D01*
X121217216Y-105021500D01*
X121197817Y-105019973D01*
X121177658Y-105016780D01*
X121177657Y-105016780D01*
X121133543Y-105020950D01*
X121121874Y-105021500D01*
X119933631Y-105021500D01*
X119917879Y-105019760D01*
X119917854Y-105020032D01*
X119910092Y-105019298D01*
X119910091Y-105019298D01*
X119886737Y-105020032D01*
X119841969Y-105021439D01*
X119838074Y-105021500D01*
X119810144Y-105021500D01*
X119810141Y-105021500D01*
X119810125Y-105021501D01*
X119806032Y-105022018D01*
X119794404Y-105022933D01*
X119750113Y-105024325D01*
X119750107Y-105024326D01*
X119730500Y-105030022D01*
X119711461Y-105033965D01*
X119691211Y-105036524D01*
X119691205Y-105036525D01*
X119691203Y-105036526D01*
X119680425Y-105040792D01*
X119650006Y-105052836D01*
X119638960Y-105056617D01*
X119596413Y-105068979D01*
X119596407Y-105068981D01*
X119578833Y-105079374D01*
X119561372Y-105087928D01*
X119542386Y-105095446D01*
X119542385Y-105095446D01*
X119506535Y-105121492D01*
X119496776Y-105127902D01*
X119458637Y-105150457D01*
X119444201Y-105164894D01*
X119429415Y-105177523D01*
X119412893Y-105189528D01*
X119412891Y-105189529D01*
X119412891Y-105189530D01*
X119412888Y-105189533D01*
X119384642Y-105223674D01*
X119376783Y-105232311D01*
X119173913Y-105435181D01*
X119112590Y-105468666D01*
X119086232Y-105471500D01*
X118511962Y-105471500D01*
X118511946Y-105471501D01*
X118408072Y-105482113D01*
X118239764Y-105537884D01*
X118239759Y-105537886D01*
X118088846Y-105630971D01*
X117963471Y-105756346D01*
X117870386Y-105907259D01*
X117870384Y-105907264D01*
X117814613Y-106075572D01*
X117804000Y-106179447D01*
X117804000Y-107180537D01*
X117804001Y-107180553D01*
X117814613Y-107284427D01*
X117870384Y-107452735D01*
X117870386Y-107452740D01*
X117878386Y-107465710D01*
X117963470Y-107603652D01*
X118088848Y-107729030D01*
X118239762Y-107822115D01*
X118408074Y-107877887D01*
X118511955Y-107888500D01*
X119138044Y-107888499D01*
X119241926Y-107877887D01*
X119410238Y-107822115D01*
X119561152Y-107729030D01*
X119649819Y-107640363D01*
X119711142Y-107606878D01*
X119780834Y-107611862D01*
X119825181Y-107640363D01*
X119913848Y-107729030D01*
X120064762Y-107822115D01*
X120233074Y-107877887D01*
X120336955Y-107888500D01*
X120617501Y-107888499D01*
X120684539Y-107908183D01*
X120730294Y-107960987D01*
X120741500Y-108012499D01*
X120741500Y-110727500D01*
X120721815Y-110794539D01*
X120669011Y-110840294D01*
X120617500Y-110851500D01*
X120554513Y-110851500D01*
X120367714Y-110891205D01*
X120193246Y-110968883D01*
X120038745Y-111081135D01*
X120034840Y-111085473D01*
X119975354Y-111122121D01*
X119942691Y-111126500D01*
X111197309Y-111126500D01*
X111130270Y-111106815D01*
X111105160Y-111085473D01*
X111101254Y-111081135D01*
X110946753Y-110968883D01*
X110946752Y-110968882D01*
X110772288Y-110891206D01*
X110772286Y-110891205D01*
X110585487Y-110851500D01*
X110528766Y-110851500D01*
X110461727Y-110831815D01*
X110441085Y-110815181D01*
X106771086Y-107145181D01*
X106737601Y-107083858D01*
X106742585Y-107014166D01*
X106784457Y-106958233D01*
X106849921Y-106933816D01*
X106858767Y-106933500D01*
X112056366Y-106933500D01*
X112072113Y-106935238D01*
X112072139Y-106934968D01*
X112079905Y-106935701D01*
X112079909Y-106935702D01*
X112148017Y-106933560D01*
X112151913Y-106933500D01*
X112179858Y-106933500D01*
X112179860Y-106933499D01*
X112181262Y-106933322D01*
X112183949Y-106932983D01*
X112195608Y-106932064D01*
X112239889Y-106930673D01*
X112259481Y-106924980D01*
X112278538Y-106921032D01*
X112298797Y-106918474D01*
X112340006Y-106902157D01*
X112351043Y-106898379D01*
X112393593Y-106886018D01*
X112411165Y-106875625D01*
X112428632Y-106867068D01*
X112447617Y-106859552D01*
X112483461Y-106833508D01*
X112493230Y-106827092D01*
X112531362Y-106804542D01*
X112545802Y-106790100D01*
X112560592Y-106777470D01*
X112577107Y-106765472D01*
X112605359Y-106731319D01*
X112613203Y-106722699D01*
X114378739Y-104957166D01*
X114440062Y-104923681D01*
X114466420Y-104920847D01*
X114523140Y-104920847D01*
X114709941Y-104881141D01*
X114884405Y-104803465D01*
X115038906Y-104691213D01*
X115166693Y-104549291D01*
X115262180Y-104383903D01*
X115321195Y-104202275D01*
X115341157Y-104012347D01*
X115321195Y-103822419D01*
X115262180Y-103640791D01*
X115166693Y-103475403D01*
X115038906Y-103333481D01*
X114884405Y-103221229D01*
X114709941Y-103143553D01*
X114709939Y-103143552D01*
X114523140Y-103103847D01*
X114332166Y-103103847D01*
X114145367Y-103143552D01*
X113970899Y-103221230D01*
X113816398Y-103333482D01*
X113688612Y-103475404D01*
X113593126Y-103640790D01*
X113593123Y-103640797D01*
X113548381Y-103778500D01*
X113534111Y-103822419D01*
X113516672Y-103988342D01*
X113490087Y-104052956D01*
X113481032Y-104063061D01*
X111913914Y-105630181D01*
X111852591Y-105663666D01*
X111826233Y-105666500D01*
X105089616Y-105666500D01*
X105070217Y-105664973D01*
X105050058Y-105661780D01*
X105050057Y-105661780D01*
X105005943Y-105665950D01*
X104994274Y-105666500D01*
X82788800Y-105666500D01*
X82721761Y-105646815D01*
X82676006Y-105594011D01*
X82664800Y-105542500D01*
X82664800Y-103012862D01*
X82664799Y-103012845D01*
X82661457Y-102981770D01*
X82658289Y-102952299D01*
X82607189Y-102815296D01*
X82519561Y-102698239D01*
X82402504Y-102610611D01*
X82265503Y-102559511D01*
X82204954Y-102553000D01*
X82204938Y-102553000D01*
X74640062Y-102553000D01*
X74640045Y-102553000D01*
X74579497Y-102559511D01*
X74579495Y-102559511D01*
X74442495Y-102610611D01*
X74325439Y-102698239D01*
X74237811Y-102815295D01*
X74186711Y-102952295D01*
X74186711Y-102952297D01*
X74180200Y-103012845D01*
X74180200Y-109587154D01*
X72390500Y-109587154D01*
X72390500Y-100330000D01*
X73916620Y-100330000D01*
X73936091Y-100527699D01*
X73993760Y-100717808D01*
X74087401Y-100892998D01*
X74087405Y-100893005D01*
X74213431Y-101046568D01*
X74366994Y-101172594D01*
X74367001Y-101172598D01*
X74542191Y-101266239D01*
X74542193Y-101266239D01*
X74542196Y-101266241D01*
X74732299Y-101323908D01*
X74732298Y-101323908D01*
X74750024Y-101325653D01*
X74930000Y-101343380D01*
X75127701Y-101323908D01*
X75317804Y-101266241D01*
X75493004Y-101172595D01*
X75493010Y-101172589D01*
X75496101Y-101170525D01*
X75497978Y-101169936D01*
X75498377Y-101169724D01*
X75498417Y-101169799D01*
X75562776Y-101149642D01*
X75630158Y-101168121D01*
X75633899Y-101170525D01*
X75636993Y-101172593D01*
X75636996Y-101172595D01*
X75636998Y-101172596D01*
X75637004Y-101172600D01*
X75812191Y-101266239D01*
X75812193Y-101266239D01*
X75812196Y-101266241D01*
X76002299Y-101323908D01*
X76002298Y-101323908D01*
X76020024Y-101325653D01*
X76200000Y-101343380D01*
X76397701Y-101323908D01*
X76587804Y-101266241D01*
X76763004Y-101172595D01*
X76916568Y-101046568D01*
X77042595Y-100893004D01*
X77136241Y-100717804D01*
X77193908Y-100527701D01*
X77213380Y-100330000D01*
X77193908Y-100132299D01*
X77136241Y-99942196D01*
X77136239Y-99942193D01*
X77136239Y-99942191D01*
X77042600Y-99767004D01*
X77040525Y-99763899D01*
X77039936Y-99762021D01*
X77039724Y-99761623D01*
X77039799Y-99761582D01*
X77019642Y-99697224D01*
X77038121Y-99629842D01*
X77040525Y-99626101D01*
X77042589Y-99623010D01*
X77042595Y-99623004D01*
X77048853Y-99611297D01*
X77136239Y-99447808D01*
X77136239Y-99447807D01*
X77136241Y-99447804D01*
X77193908Y-99257701D01*
X77213380Y-99060000D01*
X77193908Y-98862299D01*
X77136241Y-98672196D01*
X77136239Y-98672193D01*
X77136239Y-98672191D01*
X77042600Y-98497004D01*
X77040525Y-98493899D01*
X77039936Y-98492021D01*
X77039724Y-98491623D01*
X77039799Y-98491582D01*
X77019642Y-98427224D01*
X77038121Y-98359842D01*
X77040525Y-98356101D01*
X77042589Y-98353010D01*
X77042595Y-98353004D01*
X77056526Y-98326942D01*
X77136239Y-98177808D01*
X77136239Y-98177807D01*
X77136241Y-98177804D01*
X77193908Y-97987701D01*
X77213380Y-97790000D01*
X77193908Y-97592299D01*
X77136241Y-97402196D01*
X77136239Y-97402193D01*
X77136239Y-97402191D01*
X77042600Y-97227004D01*
X77040525Y-97223899D01*
X77039936Y-97222021D01*
X77039724Y-97221623D01*
X77039799Y-97221582D01*
X77019642Y-97157224D01*
X77038121Y-97089842D01*
X77040525Y-97086101D01*
X77042589Y-97083010D01*
X77042595Y-97083004D01*
X77056526Y-97056942D01*
X77136239Y-96907808D01*
X77136239Y-96907807D01*
X77136241Y-96907804D01*
X77193908Y-96717701D01*
X77213380Y-96520000D01*
X87986496Y-96520000D01*
X88006458Y-96709928D01*
X88006459Y-96709931D01*
X88065470Y-96891549D01*
X88065473Y-96891556D01*
X88160960Y-97056944D01*
X88288747Y-97198866D01*
X88443248Y-97311118D01*
X88595699Y-97378993D01*
X88648935Y-97424242D01*
X88669257Y-97491091D01*
X88661445Y-97535605D01*
X88585061Y-97740398D01*
X88524931Y-98016817D01*
X88524930Y-98016824D01*
X88504748Y-98298998D01*
X88504748Y-98299001D01*
X88524930Y-98581175D01*
X88524931Y-98581182D01*
X88585061Y-98857601D01*
X88683925Y-99122666D01*
X88683927Y-99122670D01*
X88819499Y-99370951D01*
X88819504Y-99370959D01*
X88989029Y-99597418D01*
X88989045Y-99597436D01*
X89189063Y-99797454D01*
X89189081Y-99797470D01*
X89415540Y-99966995D01*
X89415548Y-99967000D01*
X89663829Y-100102572D01*
X89663833Y-100102574D01*
X89663835Y-100102575D01*
X89928894Y-100201437D01*
X89928897Y-100201437D01*
X89928898Y-100201438D01*
X90205314Y-100261568D01*
X90205319Y-100261568D01*
X90205325Y-100261570D01*
X90416865Y-100276700D01*
X90558135Y-100276700D01*
X90769675Y-100261570D01*
X90769682Y-100261568D01*
X90769685Y-100261568D01*
X91046101Y-100201438D01*
X91046100Y-100201438D01*
X91046106Y-100201437D01*
X91311165Y-100102575D01*
X91559457Y-99966997D01*
X91785926Y-99797464D01*
X91985964Y-99597426D01*
X92155497Y-99370957D01*
X92291075Y-99122665D01*
X92389937Y-98857606D01*
X92450070Y-98581175D01*
X92470252Y-98299000D01*
X92450070Y-98016825D01*
X92389937Y-97740394D01*
X92291075Y-97475335D01*
X92260013Y-97418450D01*
X92155500Y-97227048D01*
X92155495Y-97227040D01*
X91985970Y-97000581D01*
X91985954Y-97000563D01*
X91785936Y-96800545D01*
X91785918Y-96800529D01*
X91559459Y-96631004D01*
X91559451Y-96630999D01*
X91311170Y-96495427D01*
X91311166Y-96495425D01*
X91046101Y-96396561D01*
X90769685Y-96336431D01*
X90769671Y-96336429D01*
X90558137Y-96321300D01*
X90558135Y-96321300D01*
X90416865Y-96321300D01*
X90416862Y-96321300D01*
X90205328Y-96336429D01*
X90205311Y-96336432D01*
X89932276Y-96395826D01*
X89862585Y-96390842D01*
X89806652Y-96348970D01*
X89787988Y-96312978D01*
X89734529Y-96148450D01*
X89734528Y-96148449D01*
X89734527Y-96148444D01*
X89674601Y-96044649D01*
X89639041Y-95983057D01*
X89639036Y-95983050D01*
X89565350Y-95901213D01*
X89535120Y-95838221D01*
X89533500Y-95818241D01*
X89533500Y-93467500D01*
X89553185Y-93400461D01*
X89605989Y-93354706D01*
X89657500Y-93343500D01*
X100246366Y-93343500D01*
X100262113Y-93345238D01*
X100262139Y-93344968D01*
X100269905Y-93345701D01*
X100269909Y-93345702D01*
X100338017Y-93343560D01*
X100341913Y-93343500D01*
X100369858Y-93343500D01*
X100369860Y-93343499D01*
X100371262Y-93343322D01*
X100373949Y-93342983D01*
X100385608Y-93342064D01*
X100429889Y-93340673D01*
X100449481Y-93334980D01*
X100468538Y-93331032D01*
X100488797Y-93328474D01*
X100530006Y-93312157D01*
X100541043Y-93308379D01*
X100583593Y-93296018D01*
X100601165Y-93285625D01*
X100618632Y-93277068D01*
X100637617Y-93269552D01*
X100673461Y-93243508D01*
X100683230Y-93237092D01*
X100721362Y-93214542D01*
X100735802Y-93200100D01*
X100750592Y-93187470D01*
X100767107Y-93175472D01*
X100795359Y-93141319D01*
X100803203Y-93132699D01*
X101551085Y-92384819D01*
X101612408Y-92351334D01*
X101638766Y-92348500D01*
X101695487Y-92348500D01*
X101882288Y-92308794D01*
X102056752Y-92231118D01*
X102211253Y-92118866D01*
X102339040Y-91976944D01*
X102434527Y-91811556D01*
X102493542Y-91629928D01*
X102513504Y-91440000D01*
X102493542Y-91250072D01*
X102434527Y-91068444D01*
X102339040Y-90903056D01*
X102211253Y-90761134D01*
X102056752Y-90648882D01*
X101882288Y-90571206D01*
X101882286Y-90571205D01*
X101695487Y-90531500D01*
X101504513Y-90531500D01*
X101317714Y-90571205D01*
X101143246Y-90648883D01*
X100988745Y-90761135D01*
X100860959Y-90903057D01*
X100765473Y-91068443D01*
X100765470Y-91068450D01*
X100706459Y-91250068D01*
X100706458Y-91250072D01*
X100689019Y-91415995D01*
X100662434Y-91480609D01*
X100653379Y-91490714D01*
X100103914Y-92040181D01*
X100042591Y-92073666D01*
X100016233Y-92076500D01*
X88971605Y-92076500D01*
X88948374Y-92074304D01*
X88940096Y-92072725D01*
X88940091Y-92072724D01*
X88883985Y-92076255D01*
X88876199Y-92076500D01*
X88860144Y-92076500D01*
X88854068Y-92077267D01*
X88844209Y-92078512D01*
X88836467Y-92079243D01*
X88780351Y-92082774D01*
X88780349Y-92082775D01*
X88772329Y-92085381D01*
X88749563Y-92090469D01*
X88747776Y-92090695D01*
X88741206Y-92091525D01*
X88741203Y-92091525D01*
X88741203Y-92091526D01*
X88723818Y-92098408D01*
X88688938Y-92112218D01*
X88681616Y-92114854D01*
X88628128Y-92132234D01*
X88628119Y-92132239D01*
X88621003Y-92136755D01*
X88600221Y-92147344D01*
X88592383Y-92150448D01*
X88592380Y-92150449D01*
X88592378Y-92150451D01*
X88546905Y-92183488D01*
X88540467Y-92187863D01*
X88492987Y-92217996D01*
X88492978Y-92218003D01*
X88487207Y-92224149D01*
X88469710Y-92239575D01*
X88462893Y-92244527D01*
X88462893Y-92244528D01*
X88427052Y-92287851D01*
X88421903Y-92293691D01*
X88383417Y-92334675D01*
X88383413Y-92334679D01*
X88379355Y-92342062D01*
X88366241Y-92361358D01*
X88360866Y-92367855D01*
X88336925Y-92418730D01*
X88333392Y-92425665D01*
X88306305Y-92474939D01*
X88306302Y-92474945D01*
X88304207Y-92483107D01*
X88296309Y-92505048D01*
X88292717Y-92512683D01*
X88292715Y-92512689D01*
X88282182Y-92567902D01*
X88280484Y-92575500D01*
X88266500Y-92629965D01*
X88266500Y-92638393D01*
X88264304Y-92661628D01*
X88262725Y-92669903D01*
X88262725Y-92669906D01*
X88266255Y-92726014D01*
X88266500Y-92733800D01*
X88266500Y-95818241D01*
X88246815Y-95885280D01*
X88234650Y-95901213D01*
X88160963Y-95983050D01*
X88160958Y-95983057D01*
X88065473Y-96148443D01*
X88065470Y-96148450D01*
X88006975Y-96328480D01*
X88006458Y-96330072D01*
X87986496Y-96520000D01*
X77213380Y-96520000D01*
X77193908Y-96322299D01*
X77136241Y-96132196D01*
X77136239Y-96132193D01*
X77136239Y-96132191D01*
X77042600Y-95957004D01*
X77040525Y-95953899D01*
X77039936Y-95952021D01*
X77039724Y-95951623D01*
X77039799Y-95951582D01*
X77019642Y-95887224D01*
X77038121Y-95819842D01*
X77040525Y-95816101D01*
X77042589Y-95813010D01*
X77042595Y-95813004D01*
X77047712Y-95803432D01*
X77136239Y-95637808D01*
X77136239Y-95637807D01*
X77136241Y-95637804D01*
X77193908Y-95447701D01*
X77213380Y-95250000D01*
X77193908Y-95052299D01*
X77136241Y-94862196D01*
X77136239Y-94862193D01*
X77136239Y-94862191D01*
X77042598Y-94687001D01*
X77042594Y-94686994D01*
X76916568Y-94533431D01*
X76763005Y-94407405D01*
X76762998Y-94407401D01*
X76587808Y-94313760D01*
X76398726Y-94256403D01*
X76397701Y-94256092D01*
X76397699Y-94256091D01*
X76397701Y-94256091D01*
X76200000Y-94236620D01*
X76002302Y-94256091D01*
X75972466Y-94265141D01*
X75812196Y-94313759D01*
X75812193Y-94313760D01*
X75812191Y-94313761D01*
X75805579Y-94317295D01*
X75737175Y-94331530D01*
X75680345Y-94310041D01*
X75679877Y-94310899D01*
X75673714Y-94307534D01*
X75672825Y-94307198D01*
X75672091Y-94306648D01*
X75537376Y-94256402D01*
X75537372Y-94256401D01*
X75477844Y-94250000D01*
X75180000Y-94250000D01*
X75180000Y-95042327D01*
X75142129Y-94997195D01*
X75042871Y-94939888D01*
X74958436Y-94925000D01*
X74901564Y-94925000D01*
X74817129Y-94939888D01*
X74717871Y-94997195D01*
X74644199Y-95084993D01*
X74605000Y-95192694D01*
X74605000Y-95307306D01*
X74644199Y-95415007D01*
X74715517Y-95500000D01*
X73930000Y-95500000D01*
X73930000Y-95797844D01*
X73936401Y-95857372D01*
X73936402Y-95857376D01*
X73986648Y-95992091D01*
X73987198Y-95992825D01*
X73987519Y-95993688D01*
X73990899Y-95999877D01*
X73990009Y-96000362D01*
X74011615Y-96058289D01*
X73997295Y-96125579D01*
X73993761Y-96132191D01*
X73993760Y-96132193D01*
X73993759Y-96132196D01*
X73955791Y-96257360D01*
X73936091Y-96322302D01*
X73916620Y-96520000D01*
X73936091Y-96717699D01*
X73993760Y-96907808D01*
X74087404Y-97083004D01*
X74089483Y-97086115D01*
X74090070Y-97087991D01*
X74090276Y-97088376D01*
X74090203Y-97088415D01*
X74110357Y-97152794D01*
X74091869Y-97220173D01*
X74089483Y-97223885D01*
X74087404Y-97226995D01*
X73993760Y-97402191D01*
X73936091Y-97592300D01*
X73916620Y-97790000D01*
X73936091Y-97987699D01*
X73993760Y-98177808D01*
X74087404Y-98353004D01*
X74089483Y-98356115D01*
X74090070Y-98357991D01*
X74090276Y-98358376D01*
X74090203Y-98358415D01*
X74110357Y-98422794D01*
X74091869Y-98490173D01*
X74089483Y-98493885D01*
X74087404Y-98496995D01*
X73993760Y-98672191D01*
X73936091Y-98862300D01*
X73916620Y-99060000D01*
X73936091Y-99257699D01*
X73993760Y-99447808D01*
X74087404Y-99623004D01*
X74089483Y-99626115D01*
X74090070Y-99627991D01*
X74090276Y-99628376D01*
X74090203Y-99628415D01*
X74110357Y-99692794D01*
X74091869Y-99760173D01*
X74089483Y-99763885D01*
X74087404Y-99766995D01*
X73993760Y-99942191D01*
X73936091Y-100132300D01*
X73916620Y-100330000D01*
X72390500Y-100330000D01*
X72390500Y-95000000D01*
X73930000Y-95000000D01*
X74680000Y-95000000D01*
X74680000Y-94250000D01*
X74382155Y-94250000D01*
X74322627Y-94256401D01*
X74322620Y-94256403D01*
X74187913Y-94306645D01*
X74187906Y-94306649D01*
X74072812Y-94392809D01*
X74072809Y-94392812D01*
X73986649Y-94507906D01*
X73986645Y-94507913D01*
X73936403Y-94642620D01*
X73936401Y-94642627D01*
X73930000Y-94702155D01*
X73930000Y-95000000D01*
X72390500Y-95000000D01*
X72390500Y-90170005D01*
X77596738Y-90170005D01*
X77615765Y-90472451D01*
X77615766Y-90472455D01*
X77615766Y-90472459D01*
X77615767Y-90472462D01*
X77672555Y-90770154D01*
X77704487Y-90868432D01*
X77766203Y-91058374D01*
X77766204Y-91058375D01*
X77766206Y-91058381D01*
X77895242Y-91332598D01*
X77895246Y-91332605D01*
X77895247Y-91332606D01*
X78057626Y-91588475D01*
X78057629Y-91588479D01*
X78057630Y-91588480D01*
X78250808Y-91821992D01*
X78415816Y-91976944D01*
X78471727Y-92029448D01*
X78471737Y-92029456D01*
X78716898Y-92207576D01*
X78716903Y-92207578D01*
X78716910Y-92207584D01*
X78982483Y-92353585D01*
X78982488Y-92353587D01*
X78982490Y-92353588D01*
X78982491Y-92353589D01*
X79264257Y-92465148D01*
X79264260Y-92465149D01*
X79362107Y-92490271D01*
X79557800Y-92540516D01*
X79705028Y-92559115D01*
X79858460Y-92578499D01*
X79858466Y-92578499D01*
X79858470Y-92578500D01*
X79858472Y-92578500D01*
X80161528Y-92578500D01*
X80161530Y-92578500D01*
X80161535Y-92578499D01*
X80161539Y-92578499D01*
X80245421Y-92567902D01*
X80462200Y-92540516D01*
X80755739Y-92465149D01*
X80755742Y-92465148D01*
X81037508Y-92353589D01*
X81037509Y-92353588D01*
X81037507Y-92353588D01*
X81037517Y-92353585D01*
X81303090Y-92207584D01*
X81548271Y-92029450D01*
X81769192Y-91821992D01*
X81962370Y-91588480D01*
X82124758Y-91332598D01*
X82253794Y-91058381D01*
X82347445Y-90770154D01*
X82404233Y-90472462D01*
X82423262Y-90170000D01*
X82404233Y-89867538D01*
X82347445Y-89569846D01*
X82253794Y-89281619D01*
X82124758Y-89007402D01*
X82056598Y-88900000D01*
X107036496Y-88900000D01*
X107056458Y-89089928D01*
X107056459Y-89089931D01*
X107115470Y-89271549D01*
X107115473Y-89271556D01*
X107210960Y-89436944D01*
X107338747Y-89578866D01*
X107493248Y-89691118D01*
X107667712Y-89768794D01*
X107854513Y-89808500D01*
X107911234Y-89808500D01*
X107978273Y-89828185D01*
X107998915Y-89844819D01*
X134112910Y-115958814D01*
X134122816Y-115971178D01*
X134123026Y-115971005D01*
X134127997Y-115977013D01*
X134128000Y-115977018D01*
X134177702Y-116023690D01*
X134180466Y-116026370D01*
X134200224Y-116046129D01*
X134200228Y-116046132D01*
X134200231Y-116046135D01*
X134203499Y-116048670D01*
X134212379Y-116056254D01*
X134244678Y-116086585D01*
X134244681Y-116086587D01*
X134262563Y-116096417D01*
X134278830Y-116107102D01*
X134294959Y-116119614D01*
X134335625Y-116137210D01*
X134346104Y-116142344D01*
X134384940Y-116163695D01*
X134404716Y-116168772D01*
X134423123Y-116175074D01*
X134441855Y-116183181D01*
X134485630Y-116190113D01*
X134497045Y-116192478D01*
X134539970Y-116203500D01*
X134560384Y-116203500D01*
X134579783Y-116205027D01*
X134599943Y-116208220D01*
X134644057Y-116204050D01*
X134655726Y-116203500D01*
X140262691Y-116203500D01*
X140329730Y-116223185D01*
X140354840Y-116244527D01*
X140358747Y-116248866D01*
X140513248Y-116361118D01*
X140687712Y-116438794D01*
X140874513Y-116478500D01*
X141065487Y-116478500D01*
X141252288Y-116438794D01*
X141426752Y-116361118D01*
X141581253Y-116248866D01*
X141709040Y-116106944D01*
X141804527Y-115941556D01*
X141863542Y-115759928D01*
X141883504Y-115570000D01*
X141863542Y-115380072D01*
X141804527Y-115198444D01*
X141709040Y-115033056D01*
X141581253Y-114891134D01*
X141426752Y-114778882D01*
X141252288Y-114701206D01*
X141252286Y-114701205D01*
X141065487Y-114661500D01*
X140874513Y-114661500D01*
X140687714Y-114701205D01*
X140513246Y-114778883D01*
X140358745Y-114891135D01*
X140354840Y-114895473D01*
X140295354Y-114932121D01*
X140262691Y-114936500D01*
X134933766Y-114936500D01*
X134866727Y-114916815D01*
X134846085Y-114900181D01*
X134246905Y-114301001D01*
X143749748Y-114301001D01*
X143769930Y-114583175D01*
X143769931Y-114583182D01*
X143830061Y-114859601D01*
X143928925Y-115124666D01*
X143928927Y-115124670D01*
X144064499Y-115372951D01*
X144064504Y-115372959D01*
X144234029Y-115599418D01*
X144234045Y-115599436D01*
X144434063Y-115799454D01*
X144434081Y-115799470D01*
X144660540Y-115968995D01*
X144660548Y-115969000D01*
X144908829Y-116104572D01*
X144908833Y-116104574D01*
X144908835Y-116104575D01*
X145173894Y-116203437D01*
X145173897Y-116203437D01*
X145173898Y-116203438D01*
X145450314Y-116263568D01*
X145450319Y-116263568D01*
X145450325Y-116263570D01*
X145661865Y-116278700D01*
X145803135Y-116278700D01*
X146014675Y-116263570D01*
X146014682Y-116263568D01*
X146014685Y-116263568D01*
X146209390Y-116221213D01*
X146291106Y-116203437D01*
X146556165Y-116104575D01*
X146804457Y-115968997D01*
X147030926Y-115799464D01*
X147230964Y-115599426D01*
X147400497Y-115372957D01*
X147536075Y-115124665D01*
X147634937Y-114859606D01*
X147695070Y-114583175D01*
X147715252Y-114301000D01*
X147695070Y-114018825D01*
X147634937Y-113742394D01*
X147536075Y-113477335D01*
X147516943Y-113442298D01*
X147400500Y-113229048D01*
X147400495Y-113229040D01*
X147230970Y-113002581D01*
X147230954Y-113002563D01*
X147134391Y-112906000D01*
X151886500Y-112906000D01*
X151886501Y-112906009D01*
X151898235Y-113015151D01*
X151898237Y-113015163D01*
X151909443Y-113066673D01*
X151944106Y-113170820D01*
X151944109Y-113170826D01*
X152023128Y-113293781D01*
X152023134Y-113293788D01*
X152068879Y-113346581D01*
X152068882Y-113346584D01*
X152068884Y-113346586D01*
X152085657Y-113361120D01*
X152179335Y-113442294D01*
X152179337Y-113442295D01*
X152179339Y-113442297D01*
X152312287Y-113503014D01*
X152379326Y-113522699D01*
X152379330Y-113522700D01*
X152524000Y-113543500D01*
X152524003Y-113543500D01*
X156407500Y-113543500D01*
X156474539Y-113563185D01*
X156520294Y-113615989D01*
X156531500Y-113667500D01*
X156531500Y-116441366D01*
X156529761Y-116457113D01*
X156530032Y-116457139D01*
X156529298Y-116464905D01*
X156531439Y-116533016D01*
X156531500Y-116536912D01*
X156531500Y-116564859D01*
X156532018Y-116568958D01*
X156532934Y-116580598D01*
X156534326Y-116624889D01*
X156534327Y-116624891D01*
X156540022Y-116644495D01*
X156543967Y-116663542D01*
X156546526Y-116683797D01*
X156546527Y-116683801D01*
X156546529Y-116683807D01*
X156562839Y-116725004D01*
X156566621Y-116736047D01*
X156567763Y-116739977D01*
X156572009Y-116787537D01*
X156567611Y-116829392D01*
X156566496Y-116840000D01*
X156586458Y-117029928D01*
X156586459Y-117029931D01*
X156645470Y-117211549D01*
X156645472Y-117211553D01*
X156645473Y-117211556D01*
X156740960Y-117376944D01*
X156868747Y-117518866D01*
X157023248Y-117631118D01*
X157197712Y-117708794D01*
X157384513Y-117748500D01*
X157575487Y-117748500D01*
X157762288Y-117708794D01*
X157936752Y-117631118D01*
X158091253Y-117518866D01*
X158219040Y-117376944D01*
X158314527Y-117211556D01*
X158373542Y-117029928D01*
X158393504Y-116840000D01*
X158373542Y-116650072D01*
X158314527Y-116468444D01*
X158219040Y-116303056D01*
X158091253Y-116161134D01*
X158034106Y-116119614D01*
X157936753Y-116048882D01*
X157872063Y-116020080D01*
X157818827Y-115974829D01*
X157798506Y-115907980D01*
X157798500Y-115906801D01*
X157798500Y-113667500D01*
X157818185Y-113600461D01*
X157870989Y-113554706D01*
X157922500Y-113543500D01*
X162435990Y-113543500D01*
X162436000Y-113543500D01*
X162545157Y-113531764D01*
X162596668Y-113520558D01*
X162631440Y-113508984D01*
X162700820Y-113485893D01*
X162700824Y-113485890D01*
X162700827Y-113485890D01*
X162823782Y-113406871D01*
X162876586Y-113361116D01*
X162972297Y-113250661D01*
X163033014Y-113117713D01*
X163052699Y-113050674D01*
X163052700Y-113050670D01*
X163073500Y-112906000D01*
X163073500Y-100454000D01*
X163061764Y-100344843D01*
X163050558Y-100293332D01*
X163045022Y-100276699D01*
X163015893Y-100189179D01*
X163015890Y-100189173D01*
X162936871Y-100066218D01*
X162936865Y-100066211D01*
X162891120Y-100013418D01*
X162891117Y-100013415D01*
X162780664Y-99917705D01*
X162780658Y-99917701D01*
X162647716Y-99856987D01*
X162580671Y-99837300D01*
X162517620Y-99828235D01*
X162436000Y-99816500D01*
X154689442Y-99816500D01*
X154622403Y-99796815D01*
X154576648Y-99744011D01*
X154566704Y-99674853D01*
X154595729Y-99611297D01*
X154639632Y-99578944D01*
X154643346Y-99577314D01*
X154651867Y-99573577D01*
X154852248Y-99442662D01*
X155028348Y-99280550D01*
X155175364Y-99091665D01*
X155289284Y-98881157D01*
X155367003Y-98654770D01*
X155406400Y-98418678D01*
X155406400Y-98179322D01*
X155367003Y-97943230D01*
X155289284Y-97716843D01*
X155226089Y-97600068D01*
X155175367Y-97506340D01*
X155175361Y-97506331D01*
X155028353Y-97317456D01*
X155028350Y-97317452D01*
X155021469Y-97311118D01*
X154924685Y-97222021D01*
X154852245Y-97155335D01*
X154651866Y-97024422D01*
X154432671Y-96928274D01*
X154200635Y-96869515D01*
X154021847Y-96854700D01*
X154021837Y-96854700D01*
X153902363Y-96854700D01*
X153902352Y-96854700D01*
X153723564Y-96869515D01*
X153491528Y-96928274D01*
X153272333Y-97024422D01*
X153071954Y-97155335D01*
X152895849Y-97317452D01*
X152895846Y-97317456D01*
X152748838Y-97506331D01*
X152748832Y-97506340D01*
X152634919Y-97716836D01*
X152634914Y-97716847D01*
X152557197Y-97943227D01*
X152549776Y-97987699D01*
X152517800Y-98179322D01*
X152517800Y-98418678D01*
X152530039Y-98492021D01*
X152557197Y-98654772D01*
X152634914Y-98881152D01*
X152634919Y-98881163D01*
X152748832Y-99091659D01*
X152748838Y-99091668D01*
X152895846Y-99280543D01*
X152895849Y-99280547D01*
X153071954Y-99442664D01*
X153272333Y-99573577D01*
X153284568Y-99578944D01*
X153338054Y-99623900D01*
X153358744Y-99690636D01*
X153340070Y-99757964D01*
X153287959Y-99804507D01*
X153234758Y-99816500D01*
X152524000Y-99816500D01*
X152523991Y-99816500D01*
X152523990Y-99816501D01*
X152414848Y-99828235D01*
X152414836Y-99828237D01*
X152363326Y-99839443D01*
X152259179Y-99874106D01*
X152259173Y-99874109D01*
X152136218Y-99953128D01*
X152136211Y-99953134D01*
X152083418Y-99998879D01*
X152083415Y-99998882D01*
X151987705Y-100109335D01*
X151987701Y-100109341D01*
X151926987Y-100242283D01*
X151907300Y-100309328D01*
X151897037Y-100380714D01*
X151886500Y-100454000D01*
X151886500Y-103075000D01*
X151886500Y-107063500D01*
X151886500Y-112906000D01*
X147134391Y-112906000D01*
X147030936Y-112802545D01*
X147030918Y-112802529D01*
X146804459Y-112633004D01*
X146804451Y-112632999D01*
X146556170Y-112497427D01*
X146556166Y-112497425D01*
X146291101Y-112398561D01*
X146014685Y-112338431D01*
X146014671Y-112338429D01*
X145803137Y-112323300D01*
X145803135Y-112323300D01*
X145661865Y-112323300D01*
X145661862Y-112323300D01*
X145450328Y-112338429D01*
X145450314Y-112338431D01*
X145173898Y-112398561D01*
X144908833Y-112497425D01*
X144908829Y-112497427D01*
X144660548Y-112632999D01*
X144660540Y-112633004D01*
X144434081Y-112802529D01*
X144434063Y-112802545D01*
X144234045Y-113002563D01*
X144234029Y-113002581D01*
X144064504Y-113229040D01*
X144064499Y-113229048D01*
X143928927Y-113477329D01*
X143928925Y-113477333D01*
X143830061Y-113742398D01*
X143769931Y-114018817D01*
X143769930Y-114018824D01*
X143749748Y-114300998D01*
X143749748Y-114301001D01*
X134246905Y-114301001D01*
X122815905Y-102870000D01*
X123546496Y-102870000D01*
X123566458Y-103059928D01*
X123566459Y-103059931D01*
X123625470Y-103241549D01*
X123625473Y-103241556D01*
X123720960Y-103406944D01*
X123848747Y-103548866D01*
X124003248Y-103661118D01*
X124177712Y-103738794D01*
X124364513Y-103778500D01*
X124555487Y-103778500D01*
X124742288Y-103738794D01*
X124916752Y-103661118D01*
X125071253Y-103548866D01*
X125075160Y-103544527D01*
X125134646Y-103507879D01*
X125167309Y-103503500D01*
X128186366Y-103503500D01*
X128202113Y-103505238D01*
X128202139Y-103504968D01*
X128209905Y-103505701D01*
X128209909Y-103505702D01*
X128278017Y-103503560D01*
X128281913Y-103503500D01*
X128309858Y-103503500D01*
X128309860Y-103503499D01*
X128311262Y-103503322D01*
X128313949Y-103502983D01*
X128325608Y-103502064D01*
X128369889Y-103500673D01*
X128389481Y-103494980D01*
X128408538Y-103491032D01*
X128428797Y-103488474D01*
X128470006Y-103472157D01*
X128481043Y-103468379D01*
X128523593Y-103456018D01*
X128541165Y-103445625D01*
X128558632Y-103437068D01*
X128577617Y-103429552D01*
X128613461Y-103403508D01*
X128623230Y-103397092D01*
X128661362Y-103374542D01*
X128675802Y-103360100D01*
X128690592Y-103347470D01*
X128707107Y-103335472D01*
X128735359Y-103301319D01*
X128743203Y-103292699D01*
X130761085Y-101274819D01*
X130822408Y-101241334D01*
X130848766Y-101238500D01*
X130905487Y-101238500D01*
X131092288Y-101198794D01*
X131266752Y-101121118D01*
X131421253Y-101008866D01*
X131549040Y-100866944D01*
X131644527Y-100701556D01*
X131703542Y-100519928D01*
X131723504Y-100330000D01*
X131703542Y-100140072D01*
X131644527Y-99958444D01*
X131549040Y-99793056D01*
X131421253Y-99651134D01*
X131266752Y-99538882D01*
X131092288Y-99461206D01*
X131092286Y-99461205D01*
X130905487Y-99421500D01*
X130714513Y-99421500D01*
X130527714Y-99461205D01*
X130353246Y-99538883D01*
X130198745Y-99651135D01*
X130070959Y-99793057D01*
X129975473Y-99958443D01*
X129975470Y-99958450D01*
X129918983Y-100132300D01*
X129916458Y-100140072D01*
X129903688Y-100261570D01*
X129899019Y-100305995D01*
X129872434Y-100370609D01*
X129863379Y-100380714D01*
X128043914Y-102200181D01*
X127982591Y-102233666D01*
X127956233Y-102236500D01*
X125167309Y-102236500D01*
X125100270Y-102216815D01*
X125075160Y-102195473D01*
X125071254Y-102191135D01*
X124916753Y-102078883D01*
X124916752Y-102078882D01*
X124742288Y-102001206D01*
X124742286Y-102001205D01*
X124555487Y-101961500D01*
X124364513Y-101961500D01*
X124177714Y-102001205D01*
X124003246Y-102078883D01*
X123848745Y-102191135D01*
X123720959Y-102333057D01*
X123625473Y-102498443D01*
X123625470Y-102498450D01*
X123589027Y-102610611D01*
X123566458Y-102680072D01*
X123546496Y-102870000D01*
X122815905Y-102870000D01*
X117735905Y-97790000D01*
X118466496Y-97790000D01*
X118486458Y-97979928D01*
X118486459Y-97979931D01*
X118545470Y-98161549D01*
X118545473Y-98161556D01*
X118640960Y-98326944D01*
X118768747Y-98468866D01*
X118923248Y-98581118D01*
X119097712Y-98658794D01*
X119284513Y-98698500D01*
X119475487Y-98698500D01*
X119662288Y-98658794D01*
X119836752Y-98581118D01*
X119991253Y-98468866D01*
X119995160Y-98464527D01*
X120054646Y-98427879D01*
X120087309Y-98423500D01*
X121836366Y-98423500D01*
X121852113Y-98425238D01*
X121852139Y-98424968D01*
X121859905Y-98425701D01*
X121859909Y-98425702D01*
X121928017Y-98423560D01*
X121931913Y-98423500D01*
X121959858Y-98423500D01*
X121959860Y-98423499D01*
X121961262Y-98423322D01*
X121963949Y-98422983D01*
X121975608Y-98422064D01*
X122019889Y-98420673D01*
X122039481Y-98414980D01*
X122058538Y-98411032D01*
X122078797Y-98408474D01*
X122120006Y-98392157D01*
X122131043Y-98388379D01*
X122173593Y-98376018D01*
X122191165Y-98365625D01*
X122208632Y-98357068D01*
X122227617Y-98349552D01*
X122263461Y-98323508D01*
X122273230Y-98317092D01*
X122311362Y-98294542D01*
X122325802Y-98280100D01*
X122340592Y-98267470D01*
X122357107Y-98255472D01*
X122385359Y-98221319D01*
X122393203Y-98212699D01*
X125956085Y-94649819D01*
X126017408Y-94616334D01*
X126043766Y-94613500D01*
X127562691Y-94613500D01*
X127629730Y-94633185D01*
X127654840Y-94654527D01*
X127658747Y-94658866D01*
X127813248Y-94771118D01*
X127987712Y-94848794D01*
X128174513Y-94888500D01*
X128365487Y-94888500D01*
X128552288Y-94848794D01*
X128726752Y-94771118D01*
X128881253Y-94658866D01*
X129009040Y-94516944D01*
X129104527Y-94351556D01*
X129163542Y-94169928D01*
X129183504Y-93980000D01*
X129163542Y-93790072D01*
X129104527Y-93608444D01*
X129009040Y-93443056D01*
X128881253Y-93301134D01*
X128726752Y-93188882D01*
X128552288Y-93111206D01*
X128552286Y-93111205D01*
X128365487Y-93071500D01*
X128174513Y-93071500D01*
X127987714Y-93111205D01*
X127987712Y-93111206D01*
X127816429Y-93187466D01*
X127813246Y-93188883D01*
X127658745Y-93301135D01*
X127654840Y-93305473D01*
X127595354Y-93342121D01*
X127562691Y-93346500D01*
X125813632Y-93346500D01*
X125797880Y-93344760D01*
X125797855Y-93345032D01*
X125790093Y-93344298D01*
X125790092Y-93344298D01*
X125745420Y-93345702D01*
X125721970Y-93346439D01*
X125718075Y-93346500D01*
X125690144Y-93346500D01*
X125690141Y-93346500D01*
X125690125Y-93346501D01*
X125686032Y-93347018D01*
X125674404Y-93347933D01*
X125630110Y-93349325D01*
X125630109Y-93349326D01*
X125610496Y-93355023D01*
X125591459Y-93358965D01*
X125571208Y-93361524D01*
X125571202Y-93361526D01*
X125530014Y-93377832D01*
X125518971Y-93381613D01*
X125476405Y-93393981D01*
X125476401Y-93393983D01*
X125458827Y-93404376D01*
X125441362Y-93412932D01*
X125422387Y-93420445D01*
X125422385Y-93420446D01*
X125386539Y-93446489D01*
X125376780Y-93452899D01*
X125338635Y-93475459D01*
X125324200Y-93489894D01*
X125309412Y-93502525D01*
X125292894Y-93514526D01*
X125292888Y-93514533D01*
X125264642Y-93548674D01*
X125256783Y-93557311D01*
X121693914Y-97120181D01*
X121632591Y-97153666D01*
X121606233Y-97156500D01*
X120087309Y-97156500D01*
X120020270Y-97136815D01*
X119995160Y-97115473D01*
X119991254Y-97111135D01*
X119959400Y-97087991D01*
X119836752Y-96998882D01*
X119662288Y-96921206D01*
X119662286Y-96921205D01*
X119475487Y-96881500D01*
X119284513Y-96881500D01*
X119097714Y-96921205D01*
X118923246Y-96998883D01*
X118768745Y-97111135D01*
X118640959Y-97253057D01*
X118545473Y-97418443D01*
X118545470Y-97418450D01*
X118488983Y-97592300D01*
X118486458Y-97600072D01*
X118466496Y-97790000D01*
X117735905Y-97790000D01*
X108896620Y-88950715D01*
X108863135Y-88889392D01*
X108860982Y-88876012D01*
X108843542Y-88710072D01*
X108784527Y-88528444D01*
X108689040Y-88363056D01*
X108561253Y-88221134D01*
X108406752Y-88108882D01*
X108232288Y-88031206D01*
X108232286Y-88031205D01*
X108045487Y-87991500D01*
X107854513Y-87991500D01*
X107667714Y-88031205D01*
X107493246Y-88108883D01*
X107338745Y-88221135D01*
X107210959Y-88363057D01*
X107115473Y-88528443D01*
X107115470Y-88528450D01*
X107056459Y-88710068D01*
X107056458Y-88710072D01*
X107036496Y-88900000D01*
X82056598Y-88900000D01*
X82049866Y-88889392D01*
X81962373Y-88751524D01*
X81928081Y-88710072D01*
X81769192Y-88518008D01*
X81548271Y-88310550D01*
X81548268Y-88310548D01*
X81548262Y-88310543D01*
X81303101Y-88132423D01*
X81303094Y-88132418D01*
X81303090Y-88132416D01*
X81037517Y-87986415D01*
X81037514Y-87986413D01*
X81037509Y-87986411D01*
X81037508Y-87986410D01*
X80755742Y-87874851D01*
X80755739Y-87874850D01*
X80462197Y-87799483D01*
X80161539Y-87761500D01*
X80161530Y-87761500D01*
X79858470Y-87761500D01*
X79858460Y-87761500D01*
X79557802Y-87799483D01*
X79264260Y-87874850D01*
X79264257Y-87874851D01*
X78982491Y-87986410D01*
X78982490Y-87986411D01*
X78716910Y-88132416D01*
X78716898Y-88132423D01*
X78471737Y-88310543D01*
X78471727Y-88310551D01*
X78281918Y-88488794D01*
X78250808Y-88518008D01*
X78212083Y-88564819D01*
X78057626Y-88751524D01*
X77895247Y-89007393D01*
X77895244Y-89007397D01*
X77895242Y-89007402D01*
X77766206Y-89281619D01*
X77766204Y-89281624D01*
X77766203Y-89281625D01*
X77676850Y-89556626D01*
X77672555Y-89569846D01*
X77627029Y-89808500D01*
X77615766Y-89867544D01*
X77615765Y-89867548D01*
X77596738Y-90169994D01*
X77596738Y-90170005D01*
X72390500Y-90170005D01*
X72390500Y-87620000D01*
X124816496Y-87620000D01*
X124836458Y-87809928D01*
X124836459Y-87809931D01*
X124895470Y-87991549D01*
X124895473Y-87991556D01*
X124990960Y-88156944D01*
X125118747Y-88298866D01*
X125273248Y-88411118D01*
X125447712Y-88488794D01*
X125634513Y-88528500D01*
X125691234Y-88528500D01*
X125758273Y-88548185D01*
X125778915Y-88564819D01*
X133897528Y-96683432D01*
X133931013Y-96744755D01*
X133933847Y-96771113D01*
X133933847Y-107300894D01*
X133914162Y-107367933D01*
X133901997Y-107383866D01*
X133828310Y-107465703D01*
X133828305Y-107465710D01*
X133732820Y-107631096D01*
X133732817Y-107631103D01*
X133700999Y-107729030D01*
X133673805Y-107812725D01*
X133653843Y-108002653D01*
X133673805Y-108192581D01*
X133673806Y-108192584D01*
X133732817Y-108374202D01*
X133732820Y-108374209D01*
X133828307Y-108539597D01*
X133956094Y-108681519D01*
X134110595Y-108793771D01*
X134285059Y-108871447D01*
X134471860Y-108911153D01*
X134662834Y-108911153D01*
X134849635Y-108871447D01*
X135024099Y-108793771D01*
X135178600Y-108681519D01*
X135306387Y-108539597D01*
X135401874Y-108374209D01*
X135460889Y-108192581D01*
X135480851Y-108002653D01*
X135460889Y-107812725D01*
X135401874Y-107631097D01*
X135306387Y-107465709D01*
X135306383Y-107465703D01*
X135232697Y-107383866D01*
X135202467Y-107320874D01*
X135200847Y-107300894D01*
X135200847Y-96540978D01*
X135202586Y-96525226D01*
X135202315Y-96525201D01*
X135203047Y-96517445D01*
X135203049Y-96517438D01*
X135200908Y-96449315D01*
X135200847Y-96445420D01*
X135200847Y-96417494D01*
X135200847Y-96417491D01*
X135200329Y-96413394D01*
X135199412Y-96401745D01*
X135199226Y-96395826D01*
X135198021Y-96357458D01*
X135192323Y-96337846D01*
X135188380Y-96318813D01*
X135185821Y-96298550D01*
X135169510Y-96257354D01*
X135165728Y-96246306D01*
X135153365Y-96203755D01*
X135153365Y-96203754D01*
X135142973Y-96186182D01*
X135134413Y-96168709D01*
X135126899Y-96149730D01*
X135100857Y-96113886D01*
X135094446Y-96104128D01*
X135071889Y-96065985D01*
X135057455Y-96051551D01*
X135044818Y-96036756D01*
X135032819Y-96020240D01*
X135032816Y-96020238D01*
X135032816Y-96020237D01*
X134998672Y-95991990D01*
X134990032Y-95984128D01*
X133864960Y-94859056D01*
X133831475Y-94797733D01*
X133831831Y-94792753D01*
X133792728Y-94782076D01*
X133770088Y-94764184D01*
X132985904Y-93980000D01*
X133706496Y-93980000D01*
X133726458Y-94169928D01*
X133726459Y-94169931D01*
X133785470Y-94351549D01*
X133785473Y-94351556D01*
X133880960Y-94516944D01*
X133895806Y-94533432D01*
X133949919Y-94593531D01*
X133979654Y-94655491D01*
X134012068Y-94662543D01*
X134025522Y-94671054D01*
X134163248Y-94771118D01*
X134337712Y-94848794D01*
X134524513Y-94888500D01*
X134715487Y-94888500D01*
X134902288Y-94848794D01*
X135076752Y-94771118D01*
X135231253Y-94658866D01*
X135235160Y-94654527D01*
X135294646Y-94617879D01*
X135327309Y-94613500D01*
X138992691Y-94613500D01*
X139059730Y-94633185D01*
X139084840Y-94654527D01*
X139088747Y-94658866D01*
X139243248Y-94771118D01*
X139417712Y-94848794D01*
X139604513Y-94888500D01*
X139795487Y-94888500D01*
X139982288Y-94848794D01*
X140156752Y-94771118D01*
X140311253Y-94658866D01*
X140439040Y-94516944D01*
X140534527Y-94351556D01*
X140593542Y-94169928D01*
X140613504Y-93980000D01*
X140593542Y-93790072D01*
X140534527Y-93608444D01*
X140439040Y-93443056D01*
X140311253Y-93301134D01*
X140156752Y-93188882D01*
X139982288Y-93111206D01*
X139982286Y-93111205D01*
X139795487Y-93071500D01*
X139604513Y-93071500D01*
X139417714Y-93111205D01*
X139417712Y-93111206D01*
X139246429Y-93187466D01*
X139243246Y-93188883D01*
X139088745Y-93301135D01*
X139084840Y-93305473D01*
X139025354Y-93342121D01*
X138992691Y-93346500D01*
X135327309Y-93346500D01*
X135260270Y-93326815D01*
X135235160Y-93305473D01*
X135231254Y-93301135D01*
X135209914Y-93285630D01*
X135076752Y-93188882D01*
X134902288Y-93111206D01*
X134902286Y-93111205D01*
X134715487Y-93071500D01*
X134524513Y-93071500D01*
X134337714Y-93111205D01*
X134337712Y-93111206D01*
X134166429Y-93187466D01*
X134163246Y-93188883D01*
X134008745Y-93301135D01*
X133880959Y-93443057D01*
X133785473Y-93608443D01*
X133785470Y-93608450D01*
X133726459Y-93790068D01*
X133726458Y-93790072D01*
X133706496Y-93980000D01*
X132985904Y-93980000D01*
X130817460Y-91811556D01*
X130445909Y-91440005D01*
X153796738Y-91440005D01*
X153815765Y-91742451D01*
X153815766Y-91742455D01*
X153815766Y-91742459D01*
X153815767Y-91742462D01*
X153872555Y-92040154D01*
X153888904Y-92090470D01*
X153959841Y-92308794D01*
X153966206Y-92328381D01*
X154095242Y-92602598D01*
X154095246Y-92602605D01*
X154095247Y-92602606D01*
X154257626Y-92858475D01*
X154257629Y-92858479D01*
X154257630Y-92858480D01*
X154450808Y-93091992D01*
X154651719Y-93280659D01*
X154671727Y-93299448D01*
X154671737Y-93299456D01*
X154916898Y-93477576D01*
X154916903Y-93477578D01*
X154916910Y-93477584D01*
X155182483Y-93623585D01*
X155182488Y-93623587D01*
X155182490Y-93623588D01*
X155182491Y-93623589D01*
X155464257Y-93735148D01*
X155464260Y-93735149D01*
X155562107Y-93760271D01*
X155757800Y-93810516D01*
X155905028Y-93829115D01*
X156058460Y-93848499D01*
X156058466Y-93848499D01*
X156058470Y-93848500D01*
X156058472Y-93848500D01*
X156361528Y-93848500D01*
X156361530Y-93848500D01*
X156361535Y-93848499D01*
X156361539Y-93848499D01*
X156441357Y-93838415D01*
X156662200Y-93810516D01*
X156955739Y-93735149D01*
X156955742Y-93735148D01*
X157237508Y-93623589D01*
X157237509Y-93623588D01*
X157237507Y-93623588D01*
X157237517Y-93623585D01*
X157503090Y-93477584D01*
X157748271Y-93299450D01*
X157969192Y-93091992D01*
X158162370Y-92858480D01*
X158324758Y-92602598D01*
X158453794Y-92328381D01*
X158460159Y-92308794D01*
X158500128Y-92185780D01*
X158547445Y-92040154D01*
X158604233Y-91742462D01*
X158613921Y-91588475D01*
X158623262Y-91440005D01*
X158623262Y-91439994D01*
X158604234Y-91137548D01*
X158604233Y-91137544D01*
X158604233Y-91137538D01*
X158547445Y-90839846D01*
X158453794Y-90551619D01*
X158324758Y-90277402D01*
X158162370Y-90021520D01*
X157969192Y-89788008D01*
X157748271Y-89580550D01*
X157748268Y-89580548D01*
X157748262Y-89580543D01*
X157503101Y-89402423D01*
X157503094Y-89402418D01*
X157503090Y-89402416D01*
X157237517Y-89256415D01*
X157237514Y-89256413D01*
X157237509Y-89256411D01*
X157237508Y-89256410D01*
X156955742Y-89144851D01*
X156955739Y-89144850D01*
X156662197Y-89069483D01*
X156361539Y-89031500D01*
X156361530Y-89031500D01*
X156058470Y-89031500D01*
X156058460Y-89031500D01*
X155757802Y-89069483D01*
X155464260Y-89144850D01*
X155464257Y-89144851D01*
X155182491Y-89256410D01*
X155182490Y-89256411D01*
X154916910Y-89402416D01*
X154916898Y-89402423D01*
X154671737Y-89580543D01*
X154671727Y-89580551D01*
X154450810Y-89788006D01*
X154257626Y-90021524D01*
X154095247Y-90277393D01*
X154095244Y-90277397D01*
X154095242Y-90277402D01*
X153966206Y-90551619D01*
X153966204Y-90551624D01*
X153966203Y-90551625D01*
X153898130Y-90761134D01*
X153872555Y-90839846D01*
X153815767Y-91137538D01*
X153815766Y-91137544D01*
X153815765Y-91137548D01*
X153796738Y-91439994D01*
X153796738Y-91440005D01*
X130445909Y-91440005D01*
X126676620Y-87670715D01*
X126643135Y-87609392D01*
X126640982Y-87596012D01*
X126623542Y-87430072D01*
X126564527Y-87248444D01*
X126469040Y-87083056D01*
X126341253Y-86941134D01*
X126186752Y-86828882D01*
X126012288Y-86751206D01*
X126012286Y-86751205D01*
X125825487Y-86711500D01*
X125634513Y-86711500D01*
X125447714Y-86751205D01*
X125273246Y-86828883D01*
X125118745Y-86941135D01*
X124990959Y-87083057D01*
X124895473Y-87248443D01*
X124895470Y-87248450D01*
X124836459Y-87430068D01*
X124836458Y-87430072D01*
X124816496Y-87620000D01*
X72390500Y-87620000D01*
X72390500Y-86484500D01*
X72410185Y-86417461D01*
X72462989Y-86371706D01*
X72514500Y-86360500D01*
X163705500Y-86360500D01*
X163772539Y-86380185D01*
G37*
G04 #@! TD.AperFunction*
G04 #@! TA.AperFunction,Conductor*
G36*
X162503039Y-100349685D02*
G01*
X162548794Y-100402489D01*
X162560000Y-100454000D01*
X162560000Y-112906000D01*
X162540315Y-112973039D01*
X162487511Y-113018794D01*
X162436000Y-113030000D01*
X157922500Y-113030000D01*
X157855461Y-113010315D01*
X157809706Y-112957511D01*
X157798500Y-112906000D01*
X157798500Y-112388766D01*
X157818185Y-112321727D01*
X157834814Y-112301089D01*
X157956134Y-112179770D01*
X158029613Y-112085041D01*
X158087166Y-111952045D01*
X158093180Y-111938148D01*
X158093180Y-111938146D01*
X158093181Y-111938145D01*
X158118220Y-111780057D01*
X158106420Y-111655230D01*
X158103157Y-111620707D01*
X158103156Y-111620706D01*
X158048940Y-111470113D01*
X158048940Y-111470112D01*
X157958974Y-111337732D01*
X157958970Y-111337727D01*
X157838910Y-111231880D01*
X157696298Y-111159216D01*
X157696295Y-111159214D01*
X157612477Y-111140478D01*
X157540091Y-111124298D01*
X157540088Y-111124298D01*
X157380107Y-111129326D01*
X157226412Y-111173980D01*
X157226402Y-111173984D01*
X157088642Y-111255453D01*
X157088630Y-111255463D01*
X156776179Y-111567914D01*
X156763820Y-111577818D01*
X156763993Y-111578027D01*
X156757982Y-111583000D01*
X156711338Y-111632669D01*
X156708633Y-111635460D01*
X156688873Y-111655221D01*
X156688858Y-111655238D01*
X156686317Y-111658513D01*
X156678753Y-111667367D01*
X156648420Y-111699671D01*
X156648412Y-111699681D01*
X156638579Y-111717567D01*
X156627903Y-111733820D01*
X156615386Y-111749957D01*
X156615385Y-111749960D01*
X156597785Y-111790629D01*
X156592648Y-111801115D01*
X156571303Y-111839941D01*
X156571303Y-111839942D01*
X156566225Y-111859720D01*
X156559925Y-111878122D01*
X156551818Y-111896857D01*
X156544888Y-111940609D01*
X156542520Y-111952045D01*
X156531500Y-111994965D01*
X156531500Y-112015384D01*
X156529973Y-112034783D01*
X156526780Y-112054941D01*
X156526780Y-112054942D01*
X156530950Y-112099057D01*
X156531500Y-112110726D01*
X156531500Y-112906000D01*
X156511815Y-112973039D01*
X156459011Y-113018794D01*
X156407500Y-113030000D01*
X152524000Y-113030000D01*
X152456961Y-113010315D01*
X152411206Y-112957511D01*
X152400000Y-112906000D01*
X152400000Y-106550000D01*
X153563700Y-106550000D01*
X153563700Y-109586344D01*
X153570101Y-109645872D01*
X153570103Y-109645879D01*
X153620345Y-109780586D01*
X153620349Y-109780593D01*
X153706509Y-109895687D01*
X153706512Y-109895690D01*
X153821606Y-109981850D01*
X153821613Y-109981854D01*
X153956320Y-110032096D01*
X153956327Y-110032098D01*
X154015855Y-110038499D01*
X154015872Y-110038500D01*
X157547500Y-110038500D01*
X157547500Y-106550000D01*
X158047500Y-106550000D01*
X158047500Y-110038500D01*
X161579128Y-110038500D01*
X161579144Y-110038499D01*
X161638672Y-110032098D01*
X161638679Y-110032096D01*
X161773386Y-109981854D01*
X161773393Y-109981850D01*
X161888487Y-109895690D01*
X161888490Y-109895687D01*
X161974650Y-109780593D01*
X161974654Y-109780586D01*
X162024896Y-109645879D01*
X162024898Y-109645872D01*
X162031299Y-109586344D01*
X162031300Y-109586327D01*
X162031300Y-106550000D01*
X158047500Y-106550000D01*
X157547500Y-106550000D01*
X153563700Y-106550000D01*
X152400000Y-106550000D01*
X152400000Y-106050000D01*
X153563700Y-106050000D01*
X157547500Y-106050000D01*
X157547500Y-102561500D01*
X158047500Y-102561500D01*
X158047500Y-106050000D01*
X162031300Y-106050000D01*
X162031300Y-103013672D01*
X162031299Y-103013655D01*
X162024898Y-102954127D01*
X162024896Y-102954120D01*
X161974654Y-102819413D01*
X161974650Y-102819406D01*
X161888490Y-102704312D01*
X161888487Y-102704309D01*
X161773393Y-102618149D01*
X161773386Y-102618145D01*
X161638679Y-102567903D01*
X161638672Y-102567901D01*
X161579144Y-102561500D01*
X158047500Y-102561500D01*
X157547500Y-102561500D01*
X154015855Y-102561500D01*
X153956327Y-102567901D01*
X153956320Y-102567903D01*
X153821613Y-102618145D01*
X153821606Y-102618149D01*
X153706512Y-102704309D01*
X153706509Y-102704312D01*
X153620349Y-102819406D01*
X153620345Y-102819413D01*
X153570103Y-102954120D01*
X153570101Y-102954127D01*
X153563700Y-103013655D01*
X153563700Y-106050000D01*
X152400000Y-106050000D01*
X152400000Y-100454000D01*
X152419685Y-100386961D01*
X152472489Y-100341206D01*
X152524000Y-100330000D01*
X162436000Y-100330000D01*
X162503039Y-100349685D01*
G37*
G04 #@! TD.AperFunction*
M02*
