G04 #@! TF.GenerationSoftware,KiCad,Pcbnew,7.0.10*
G04 #@! TF.CreationDate,2024-04-08T00:43:02-04:00*
G04 #@! TF.ProjectId,JokerIteration1,4a6f6b65-7249-4746-9572-6174696f6e31,rev?*
G04 #@! TF.SameCoordinates,Original*
G04 #@! TF.FileFunction,Legend,Bot*
G04 #@! TF.FilePolarity,Positive*
%FSLAX46Y46*%
G04 Gerber Fmt 4.6, Leading zero omitted, Abs format (unit mm)*
G04 Created by KiCad (PCBNEW 7.0.10) date 2024-04-08 00:43:02*
%MOMM*%
%LPD*%
G01*
G04 APERTURE LIST*
G04 Aperture macros list*
%AMRoundRect*
0 Rectangle with rounded corners*
0 $1 Rounding radius*
0 $2 $3 $4 $5 $6 $7 $8 $9 X,Y pos of 4 corners*
0 Add a 4 corners polygon primitive as box body*
4,1,4,$2,$3,$4,$5,$6,$7,$8,$9,$2,$3,0*
0 Add four circle primitives for the rounded corners*
1,1,$1+$1,$2,$3*
1,1,$1+$1,$4,$5*
1,1,$1+$1,$6,$7*
1,1,$1+$1,$8,$9*
0 Add four rect primitives between the rounded corners*
20,1,$1+$1,$2,$3,$4,$5,0*
20,1,$1+$1,$4,$5,$6,$7,0*
20,1,$1+$1,$6,$7,$8,$9,0*
20,1,$1+$1,$8,$9,$2,$3,0*%
G04 Aperture macros list end*
%ADD10C,0.150000*%
%ADD11C,0.152400*%
%ADD12C,0.508000*%
%ADD13C,0.120000*%
%ADD14C,2.387600*%
%ADD15R,7.467600X6.477000*%
%ADD16C,1.200000*%
%ADD17RoundRect,0.250000X-0.600000X-0.750000X0.600000X-0.750000X0.600000X0.750000X-0.600000X0.750000X0*%
%ADD18O,1.700000X2.000000*%
%ADD19R,1.000000X1.000000*%
%ADD20O,1.000000X1.000000*%
%ADD21C,3.800000*%
%ADD22RoundRect,0.250000X0.262500X0.450000X-0.262500X0.450000X-0.262500X-0.450000X0.262500X-0.450000X0*%
G04 APERTURE END LIST*
D10*
X108883220Y-121789819D02*
X108883220Y-120789819D01*
X108883220Y-120789819D02*
X108549887Y-121504104D01*
X108549887Y-121504104D02*
X108216554Y-120789819D01*
X108216554Y-120789819D02*
X108216554Y-121789819D01*
X107311792Y-121789819D02*
X107311792Y-121266009D01*
X107311792Y-121266009D02*
X107359411Y-121170771D01*
X107359411Y-121170771D02*
X107454649Y-121123152D01*
X107454649Y-121123152D02*
X107645125Y-121123152D01*
X107645125Y-121123152D02*
X107740363Y-121170771D01*
X107311792Y-121742200D02*
X107407030Y-121789819D01*
X107407030Y-121789819D02*
X107645125Y-121789819D01*
X107645125Y-121789819D02*
X107740363Y-121742200D01*
X107740363Y-121742200D02*
X107787982Y-121646961D01*
X107787982Y-121646961D02*
X107787982Y-121551723D01*
X107787982Y-121551723D02*
X107740363Y-121456485D01*
X107740363Y-121456485D02*
X107645125Y-121408866D01*
X107645125Y-121408866D02*
X107407030Y-121408866D01*
X107407030Y-121408866D02*
X107311792Y-121361247D01*
X106407030Y-121789819D02*
X106407030Y-120789819D01*
X106407030Y-121742200D02*
X106502268Y-121789819D01*
X106502268Y-121789819D02*
X106692744Y-121789819D01*
X106692744Y-121789819D02*
X106787982Y-121742200D01*
X106787982Y-121742200D02*
X106835601Y-121694580D01*
X106835601Y-121694580D02*
X106883220Y-121599342D01*
X106883220Y-121599342D02*
X106883220Y-121313628D01*
X106883220Y-121313628D02*
X106835601Y-121218390D01*
X106835601Y-121218390D02*
X106787982Y-121170771D01*
X106787982Y-121170771D02*
X106692744Y-121123152D01*
X106692744Y-121123152D02*
X106502268Y-121123152D01*
X106502268Y-121123152D02*
X106407030Y-121170771D01*
X105549887Y-121742200D02*
X105645125Y-121789819D01*
X105645125Y-121789819D02*
X105835601Y-121789819D01*
X105835601Y-121789819D02*
X105930839Y-121742200D01*
X105930839Y-121742200D02*
X105978458Y-121646961D01*
X105978458Y-121646961D02*
X105978458Y-121266009D01*
X105978458Y-121266009D02*
X105930839Y-121170771D01*
X105930839Y-121170771D02*
X105835601Y-121123152D01*
X105835601Y-121123152D02*
X105645125Y-121123152D01*
X105645125Y-121123152D02*
X105549887Y-121170771D01*
X105549887Y-121170771D02*
X105502268Y-121266009D01*
X105502268Y-121266009D02*
X105502268Y-121361247D01*
X105502268Y-121361247D02*
X105978458Y-121456485D01*
X104454648Y-121123152D02*
X104073696Y-121123152D01*
X104311791Y-121789819D02*
X104311791Y-120932676D01*
X104311791Y-120932676D02*
X104264172Y-120837438D01*
X104264172Y-120837438D02*
X104168934Y-120789819D01*
X104168934Y-120789819D02*
X104073696Y-120789819D01*
X103597505Y-121789819D02*
X103692743Y-121742200D01*
X103692743Y-121742200D02*
X103740362Y-121694580D01*
X103740362Y-121694580D02*
X103787981Y-121599342D01*
X103787981Y-121599342D02*
X103787981Y-121313628D01*
X103787981Y-121313628D02*
X103740362Y-121218390D01*
X103740362Y-121218390D02*
X103692743Y-121170771D01*
X103692743Y-121170771D02*
X103597505Y-121123152D01*
X103597505Y-121123152D02*
X103454648Y-121123152D01*
X103454648Y-121123152D02*
X103359410Y-121170771D01*
X103359410Y-121170771D02*
X103311791Y-121218390D01*
X103311791Y-121218390D02*
X103264172Y-121313628D01*
X103264172Y-121313628D02*
X103264172Y-121599342D01*
X103264172Y-121599342D02*
X103311791Y-121694580D01*
X103311791Y-121694580D02*
X103359410Y-121742200D01*
X103359410Y-121742200D02*
X103454648Y-121789819D01*
X103454648Y-121789819D02*
X103597505Y-121789819D01*
X102835600Y-121789819D02*
X102835600Y-121123152D01*
X102835600Y-121313628D02*
X102787981Y-121218390D01*
X102787981Y-121218390D02*
X102740362Y-121170771D01*
X102740362Y-121170771D02*
X102645124Y-121123152D01*
X102645124Y-121123152D02*
X102549886Y-121123152D01*
X101454647Y-121266009D02*
X101121314Y-121266009D01*
X100978457Y-121789819D02*
X101454647Y-121789819D01*
X101454647Y-121789819D02*
X101454647Y-120789819D01*
X101454647Y-120789819D02*
X100978457Y-120789819D01*
X100549885Y-121266009D02*
X100216552Y-121266009D01*
X100073695Y-121789819D02*
X100549885Y-121789819D01*
X100549885Y-121789819D02*
X100549885Y-120789819D01*
X100549885Y-120789819D02*
X100073695Y-120789819D01*
X99121314Y-121789819D02*
X99692742Y-121789819D01*
X99407028Y-121789819D02*
X99407028Y-120789819D01*
X99407028Y-120789819D02*
X99502266Y-120932676D01*
X99502266Y-120932676D02*
X99597504Y-121027914D01*
X99597504Y-121027914D02*
X99692742Y-121075533D01*
X98645123Y-121789819D02*
X98454647Y-121789819D01*
X98454647Y-121789819D02*
X98359409Y-121742200D01*
X98359409Y-121742200D02*
X98311790Y-121694580D01*
X98311790Y-121694580D02*
X98216552Y-121551723D01*
X98216552Y-121551723D02*
X98168933Y-121361247D01*
X98168933Y-121361247D02*
X98168933Y-120980295D01*
X98168933Y-120980295D02*
X98216552Y-120885057D01*
X98216552Y-120885057D02*
X98264171Y-120837438D01*
X98264171Y-120837438D02*
X98359409Y-120789819D01*
X98359409Y-120789819D02*
X98549885Y-120789819D01*
X98549885Y-120789819D02*
X98645123Y-120837438D01*
X98645123Y-120837438D02*
X98692742Y-120885057D01*
X98692742Y-120885057D02*
X98740361Y-120980295D01*
X98740361Y-120980295D02*
X98740361Y-121218390D01*
X98740361Y-121218390D02*
X98692742Y-121313628D01*
X98692742Y-121313628D02*
X98645123Y-121361247D01*
X98645123Y-121361247D02*
X98549885Y-121408866D01*
X98549885Y-121408866D02*
X98359409Y-121408866D01*
X98359409Y-121408866D02*
X98264171Y-121361247D01*
X98264171Y-121361247D02*
X98216552Y-121313628D01*
X98216552Y-121313628D02*
X98168933Y-121218390D01*
X97835599Y-120789819D02*
X97216552Y-120789819D01*
X97216552Y-120789819D02*
X97549885Y-121170771D01*
X97549885Y-121170771D02*
X97407028Y-121170771D01*
X97407028Y-121170771D02*
X97311790Y-121218390D01*
X97311790Y-121218390D02*
X97264171Y-121266009D01*
X97264171Y-121266009D02*
X97216552Y-121361247D01*
X97216552Y-121361247D02*
X97216552Y-121599342D01*
X97216552Y-121599342D02*
X97264171Y-121694580D01*
X97264171Y-121694580D02*
X97311790Y-121742200D01*
X97311790Y-121742200D02*
X97407028Y-121789819D01*
X97407028Y-121789819D02*
X97692742Y-121789819D01*
X97692742Y-121789819D02*
X97787980Y-121742200D01*
X97787980Y-121742200D02*
X97835599Y-121694580D01*
X96026075Y-121789819D02*
X96026075Y-121123152D01*
X96026075Y-120789819D02*
X96073694Y-120837438D01*
X96073694Y-120837438D02*
X96026075Y-120885057D01*
X96026075Y-120885057D02*
X95978456Y-120837438D01*
X95978456Y-120837438D02*
X96026075Y-120789819D01*
X96026075Y-120789819D02*
X96026075Y-120885057D01*
X95549885Y-121123152D02*
X95549885Y-121789819D01*
X95549885Y-121218390D02*
X95502266Y-121170771D01*
X95502266Y-121170771D02*
X95407028Y-121123152D01*
X95407028Y-121123152D02*
X95264171Y-121123152D01*
X95264171Y-121123152D02*
X95168933Y-121170771D01*
X95168933Y-121170771D02*
X95121314Y-121266009D01*
X95121314Y-121266009D02*
X95121314Y-121789819D01*
X93930837Y-121742200D02*
X93787980Y-121789819D01*
X93787980Y-121789819D02*
X93549885Y-121789819D01*
X93549885Y-121789819D02*
X93454647Y-121742200D01*
X93454647Y-121742200D02*
X93407028Y-121694580D01*
X93407028Y-121694580D02*
X93359409Y-121599342D01*
X93359409Y-121599342D02*
X93359409Y-121504104D01*
X93359409Y-121504104D02*
X93407028Y-121408866D01*
X93407028Y-121408866D02*
X93454647Y-121361247D01*
X93454647Y-121361247D02*
X93549885Y-121313628D01*
X93549885Y-121313628D02*
X93740361Y-121266009D01*
X93740361Y-121266009D02*
X93835599Y-121218390D01*
X93835599Y-121218390D02*
X93883218Y-121170771D01*
X93883218Y-121170771D02*
X93930837Y-121075533D01*
X93930837Y-121075533D02*
X93930837Y-120980295D01*
X93930837Y-120980295D02*
X93883218Y-120885057D01*
X93883218Y-120885057D02*
X93835599Y-120837438D01*
X93835599Y-120837438D02*
X93740361Y-120789819D01*
X93740361Y-120789819D02*
X93502266Y-120789819D01*
X93502266Y-120789819D02*
X93359409Y-120837438D01*
X92787980Y-121789819D02*
X92883218Y-121742200D01*
X92883218Y-121742200D02*
X92930837Y-121694580D01*
X92930837Y-121694580D02*
X92978456Y-121599342D01*
X92978456Y-121599342D02*
X92978456Y-121313628D01*
X92978456Y-121313628D02*
X92930837Y-121218390D01*
X92930837Y-121218390D02*
X92883218Y-121170771D01*
X92883218Y-121170771D02*
X92787980Y-121123152D01*
X92787980Y-121123152D02*
X92645123Y-121123152D01*
X92645123Y-121123152D02*
X92549885Y-121170771D01*
X92549885Y-121170771D02*
X92502266Y-121218390D01*
X92502266Y-121218390D02*
X92454647Y-121313628D01*
X92454647Y-121313628D02*
X92454647Y-121599342D01*
X92454647Y-121599342D02*
X92502266Y-121694580D01*
X92502266Y-121694580D02*
X92549885Y-121742200D01*
X92549885Y-121742200D02*
X92645123Y-121789819D01*
X92645123Y-121789819D02*
X92787980Y-121789819D01*
X92026075Y-121789819D02*
X92026075Y-121123152D01*
X92026075Y-121218390D02*
X91978456Y-121170771D01*
X91978456Y-121170771D02*
X91883218Y-121123152D01*
X91883218Y-121123152D02*
X91740361Y-121123152D01*
X91740361Y-121123152D02*
X91645123Y-121170771D01*
X91645123Y-121170771D02*
X91597504Y-121266009D01*
X91597504Y-121266009D02*
X91597504Y-121789819D01*
X91597504Y-121266009D02*
X91549885Y-121170771D01*
X91549885Y-121170771D02*
X91454647Y-121123152D01*
X91454647Y-121123152D02*
X91311790Y-121123152D01*
X91311790Y-121123152D02*
X91216551Y-121170771D01*
X91216551Y-121170771D02*
X91168932Y-121266009D01*
X91168932Y-121266009D02*
X91168932Y-121789819D01*
X90311790Y-121742200D02*
X90407028Y-121789819D01*
X90407028Y-121789819D02*
X90597504Y-121789819D01*
X90597504Y-121789819D02*
X90692742Y-121742200D01*
X90692742Y-121742200D02*
X90740361Y-121646961D01*
X90740361Y-121646961D02*
X90740361Y-121266009D01*
X90740361Y-121266009D02*
X90692742Y-121170771D01*
X90692742Y-121170771D02*
X90597504Y-121123152D01*
X90597504Y-121123152D02*
X90407028Y-121123152D01*
X90407028Y-121123152D02*
X90311790Y-121170771D01*
X90311790Y-121170771D02*
X90264171Y-121266009D01*
X90264171Y-121266009D02*
X90264171Y-121361247D01*
X90264171Y-121361247D02*
X90740361Y-121456485D01*
X89835599Y-121789819D02*
X89835599Y-121123152D01*
X89835599Y-121313628D02*
X89787980Y-121218390D01*
X89787980Y-121218390D02*
X89740361Y-121170771D01*
X89740361Y-121170771D02*
X89645123Y-121123152D01*
X89645123Y-121123152D02*
X89549885Y-121123152D01*
X89311789Y-121123152D02*
X89073694Y-121789819D01*
X89073694Y-121789819D02*
X88835599Y-121123152D01*
X88454646Y-121789819D02*
X88454646Y-121123152D01*
X88454646Y-120789819D02*
X88502265Y-120837438D01*
X88502265Y-120837438D02*
X88454646Y-120885057D01*
X88454646Y-120885057D02*
X88407027Y-120837438D01*
X88407027Y-120837438D02*
X88454646Y-120789819D01*
X88454646Y-120789819D02*
X88454646Y-120885057D01*
X87835599Y-121789819D02*
X87930837Y-121742200D01*
X87930837Y-121742200D02*
X87978456Y-121646961D01*
X87978456Y-121646961D02*
X87978456Y-120789819D01*
X87311789Y-121789819D02*
X87407027Y-121742200D01*
X87407027Y-121742200D02*
X87454646Y-121646961D01*
X87454646Y-121646961D02*
X87454646Y-120789819D01*
X86549884Y-121742200D02*
X86645122Y-121789819D01*
X86645122Y-121789819D02*
X86835598Y-121789819D01*
X86835598Y-121789819D02*
X86930836Y-121742200D01*
X86930836Y-121742200D02*
X86978455Y-121646961D01*
X86978455Y-121646961D02*
X86978455Y-121266009D01*
X86978455Y-121266009D02*
X86930836Y-121170771D01*
X86930836Y-121170771D02*
X86835598Y-121123152D01*
X86835598Y-121123152D02*
X86645122Y-121123152D01*
X86645122Y-121123152D02*
X86549884Y-121170771D01*
X86549884Y-121170771D02*
X86502265Y-121266009D01*
X86502265Y-121266009D02*
X86502265Y-121361247D01*
X86502265Y-121361247D02*
X86978455Y-121456485D01*
X86026074Y-121742200D02*
X86026074Y-121789819D01*
X86026074Y-121789819D02*
X86073693Y-121885057D01*
X86073693Y-121885057D02*
X86121312Y-121932676D01*
X84835598Y-121789819D02*
X84835598Y-120789819D01*
X84835598Y-120789819D02*
X84502265Y-121504104D01*
X84502265Y-121504104D02*
X84168932Y-120789819D01*
X84168932Y-120789819D02*
X84168932Y-121789819D01*
X83740360Y-121504104D02*
X83264170Y-121504104D01*
X83835598Y-121789819D02*
X83502265Y-120789819D01*
X83502265Y-120789819D02*
X83168932Y-121789819D01*
X114490952Y-105845180D02*
X114490952Y-106845180D01*
X114490952Y-106845180D02*
X114729047Y-106845180D01*
X114729047Y-106845180D02*
X114871904Y-106797561D01*
X114871904Y-106797561D02*
X114967142Y-106702323D01*
X114967142Y-106702323D02*
X115014761Y-106607085D01*
X115014761Y-106607085D02*
X115062380Y-106416609D01*
X115062380Y-106416609D02*
X115062380Y-106273752D01*
X115062380Y-106273752D02*
X115014761Y-106083276D01*
X115014761Y-106083276D02*
X114967142Y-105988038D01*
X114967142Y-105988038D02*
X114871904Y-105892800D01*
X114871904Y-105892800D02*
X114729047Y-105845180D01*
X114729047Y-105845180D02*
X114490952Y-105845180D01*
X115443333Y-106130895D02*
X115919523Y-106130895D01*
X115348095Y-105845180D02*
X115681428Y-106845180D01*
X115681428Y-106845180D02*
X116014761Y-105845180D01*
X117110000Y-105845180D02*
X117110000Y-106845180D01*
X117110000Y-106845180D02*
X117490952Y-106845180D01*
X117490952Y-106845180D02*
X117586190Y-106797561D01*
X117586190Y-106797561D02*
X117633809Y-106749942D01*
X117633809Y-106749942D02*
X117681428Y-106654704D01*
X117681428Y-106654704D02*
X117681428Y-106511847D01*
X117681428Y-106511847D02*
X117633809Y-106416609D01*
X117633809Y-106416609D02*
X117586190Y-106368990D01*
X117586190Y-106368990D02*
X117490952Y-106321371D01*
X117490952Y-106321371D02*
X117110000Y-106321371D01*
X118300476Y-106845180D02*
X118490952Y-106845180D01*
X118490952Y-106845180D02*
X118586190Y-106797561D01*
X118586190Y-106797561D02*
X118681428Y-106702323D01*
X118681428Y-106702323D02*
X118729047Y-106511847D01*
X118729047Y-106511847D02*
X118729047Y-106178514D01*
X118729047Y-106178514D02*
X118681428Y-105988038D01*
X118681428Y-105988038D02*
X118586190Y-105892800D01*
X118586190Y-105892800D02*
X118490952Y-105845180D01*
X118490952Y-105845180D02*
X118300476Y-105845180D01*
X118300476Y-105845180D02*
X118205238Y-105892800D01*
X118205238Y-105892800D02*
X118110000Y-105988038D01*
X118110000Y-105988038D02*
X118062381Y-106178514D01*
X118062381Y-106178514D02*
X118062381Y-106511847D01*
X118062381Y-106511847D02*
X118110000Y-106702323D01*
X118110000Y-106702323D02*
X118205238Y-106797561D01*
X118205238Y-106797561D02*
X118300476Y-106845180D01*
X119062381Y-106845180D02*
X119300476Y-105845180D01*
X119300476Y-105845180D02*
X119490952Y-106559466D01*
X119490952Y-106559466D02*
X119681428Y-105845180D01*
X119681428Y-105845180D02*
X119919524Y-106845180D01*
X120300476Y-106368990D02*
X120633809Y-106368990D01*
X120776666Y-105845180D02*
X120300476Y-105845180D01*
X120300476Y-105845180D02*
X120300476Y-106845180D01*
X120300476Y-106845180D02*
X120776666Y-106845180D01*
X121776666Y-105845180D02*
X121443333Y-106321371D01*
X121205238Y-105845180D02*
X121205238Y-106845180D01*
X121205238Y-106845180D02*
X121586190Y-106845180D01*
X121586190Y-106845180D02*
X121681428Y-106797561D01*
X121681428Y-106797561D02*
X121729047Y-106749942D01*
X121729047Y-106749942D02*
X121776666Y-106654704D01*
X121776666Y-106654704D02*
X121776666Y-106511847D01*
X121776666Y-106511847D02*
X121729047Y-106416609D01*
X121729047Y-106416609D02*
X121681428Y-106368990D01*
X121681428Y-106368990D02*
X121586190Y-106321371D01*
X121586190Y-106321371D02*
X121205238Y-106321371D01*
X121023213Y-104484819D02*
X120451785Y-104484819D01*
X120737499Y-105484819D02*
X120737499Y-104484819D01*
X120118451Y-105484819D02*
X120118451Y-104484819D01*
X120118451Y-104961009D02*
X119547023Y-104961009D01*
X119547023Y-105484819D02*
X119547023Y-104484819D01*
X118547023Y-105484819D02*
X119118451Y-105484819D01*
X118832737Y-105484819D02*
X118832737Y-104484819D01*
X118832737Y-104484819D02*
X118927975Y-104627676D01*
X118927975Y-104627676D02*
X119023213Y-104722914D01*
X119023213Y-104722914D02*
X119118451Y-104770533D01*
D11*
X74752200Y-116752100D02*
X74752200Y-109871240D01*
X74752200Y-102728760D02*
X74752200Y-95847900D01*
X74752200Y-95847900D02*
X161467800Y-95847900D01*
X161467800Y-116752100D02*
X74752200Y-116752100D01*
X161467800Y-109871240D02*
X161467800Y-116752100D01*
X161467800Y-95847900D02*
X161467800Y-102728760D01*
D12*
X73355200Y-106300000D02*
G75*
G03*
X72593200Y-106300000I-381000J0D01*
G01*
X72593200Y-106300000D02*
G75*
G03*
X73355200Y-106300000I381000J0D01*
G01*
D13*
X119964564Y-107415000D02*
X119510436Y-107415000D01*
X119964564Y-105945000D02*
X119510436Y-105945000D01*
%LPC*%
D14*
X153962100Y-98299000D03*
D15*
X78422500Y-106300000D03*
X157797500Y-106300000D03*
D16*
X125440000Y-122650000D03*
D17*
X127040000Y-120650000D03*
D18*
X129540000Y-120650000D03*
D19*
X140970000Y-120650000D03*
D20*
X140970000Y-121920000D03*
X139700000Y-120650000D03*
X139700000Y-121920000D03*
X138430000Y-120650000D03*
X138430000Y-121920000D03*
D19*
X74930000Y-95250000D03*
D20*
X76200000Y-95250000D03*
X74930000Y-96520000D03*
X76200000Y-96520000D03*
X74930000Y-97790000D03*
X76200000Y-97790000D03*
X74930000Y-99060000D03*
X76200000Y-99060000D03*
X74930000Y-100330000D03*
X76200000Y-100330000D03*
D21*
X80010000Y-120650000D03*
X156210000Y-120650000D03*
X80010000Y-90170000D03*
X156210000Y-91440000D03*
D22*
X120650000Y-106680000D03*
X118825000Y-106680000D03*
%LPD*%
M02*
